<svg width="705" height="668" viewBox="0 0 705 668" fill="none" xmlns="http://www.w3.org/2000/svg">
<path fill-rule="evenodd" clip-rule="evenodd" d="M35.6055 455.831C51.4428 374.222 211.698 420.714 316.759 395.484C421.821 370.254 546.117 252.755 628.379 310.312C710.64 367.869 623.115 507.001 434.442 538.399C245.769 569.796 19.7681 537.44 35.6055 455.831Z" fill="#F2F2F2"/>
<g opacity="0.5">
<path fill-rule="evenodd" clip-rule="evenodd" d="M128.903 127.118C127.56 128.459 128.081 133.226 128.053 134.989C128.01 137.736 128.181 140.457 128.411 143.193C128.564 145.025 129.432 162.508 131.845 161.166C133.205 160.409 132.352 155.352 132.35 153.752C132.344 150.196 132.196 146.648 131.959 143.099C131.739 139.805 131.6 136.549 131.727 133.248C131.758 132.443 132.512 123.502 128.903 127.118Z" fill="#89C5CC"/>
<path fill-rule="evenodd" clip-rule="evenodd" d="M187.402 124.963C175.862 125.054 164.326 125.624 152.792 125.972C147.241 126.14 141.694 126.354 136.149 126.661C134.26 126.766 130.208 126.161 128.634 127.168C125.14 129.403 130.775 129.926 132.277 129.871C155.105 129.043 177.94 127.953 200.787 127.902C211.994 127.877 223.196 128.196 234.404 128.124C238.689 128.097 243.433 126.251 244.515 131.238C245.737 136.865 244.333 143.131 243.952 148.786C243.697 152.561 243.787 156.257 243.957 160.029C244.066 162.445 243.783 165.168 244.21 167.539C244.621 169.823 246.262 171.192 247.767 168.634C248.666 167.106 248.219 163.332 248.278 161.561C248.359 159.177 248.283 156.793 248.283 154.408C248.282 148.586 249.104 142.788 248.996 136.967C248.926 133.214 248.726 126.41 243.993 125.509C238.78 124.515 232.373 125.514 227.038 125.453C213.82 125.302 200.625 124.859 187.402 124.963Z" fill="#89C5CC"/>
<path fill-rule="evenodd" clip-rule="evenodd" d="M155.603 161.375C151.252 161.375 146.9 161.401 142.549 161.473C138.817 161.534 132.95 160.757 129.476 162.092C127.099 163.006 126.467 165.66 129.476 166.367C132.759 167.139 137.705 165.878 141.139 165.817C158.359 165.513 175.745 165.117 192.94 166.206C209.053 167.226 225.476 168.215 241.613 167.139C242.97 167.048 249.895 166.772 246.735 164.177C244.892 162.662 237.42 163.658 235.025 163.586C226.575 163.331 218.117 163.274 209.67 162.954C201.333 162.638 193.034 161.7 184.694 161.468C175.005 161.199 165.295 161.375 155.603 161.375Z" fill="#89C5CC"/>
<path fill-rule="evenodd" clip-rule="evenodd" d="M151.249 136.624C158.032 136.92 164.742 146.756 157.88 151.51C151.442 155.971 139.376 151.082 142.956 142.433C142.441 143.683 143.607 141.074 143.621 141.057C144.302 140.255 145.525 139.367 146.363 138.735C147.324 138.011 148.324 137.215 149.482 136.852C150.242 136.614 150.122 137.51 151.249 136.624ZM147.946 133.076C144.772 134.316 143.323 135.714 141.142 138.244C139.632 139.995 137.708 140.916 137.725 143.282C137.729 143.806 138.402 144.381 138.518 144.886C138.678 145.583 138.492 146.476 138.62 147.216C139.933 154.859 149.051 157.436 155.726 155.993C161.54 154.736 165.888 149.155 164.542 143.086C163.186 136.976 154.126 130.659 147.946 133.076Z" fill="#89C5CC"/>
<path fill-rule="evenodd" clip-rule="evenodd" d="M145.119 143.745C145.119 146.495 149.461 146.495 149.461 143.745C149.461 141.027 145.119 140.911 145.119 143.745Z" fill="#89C5CC"/>
<path fill-rule="evenodd" clip-rule="evenodd" d="M150.552 143.189C150.552 145.374 154.003 145.374 154.003 143.189C154.003 141.029 150.552 140.937 150.552 143.189Z" fill="#89C5CC"/>
<path fill-rule="evenodd" clip-rule="evenodd" d="M151.62 147.694C150.515 148.119 149.114 147.238 148.207 147.818C146.6 148.847 148.211 149.778 149.072 150.191C152.949 152.051 153.639 146.921 151.62 147.694Z" fill="#89C5CC"/>
<path fill-rule="evenodd" clip-rule="evenodd" d="M210.836 141.601C210.309 141.824 210.721 141.65 210.836 141.601V141.601ZM193.951 139.133C191.049 139.788 188.598 142.498 185.446 142.136C183.029 141.858 181.393 139.526 179.008 139.187C175.957 138.754 167.652 145.714 172.018 146.909C174.566 147.606 175.979 142.95 178.229 142.703C180.01 142.508 182.431 144.691 184.275 145.001C187.717 145.581 190.081 143.686 193.102 142.463C196.385 141.135 198.253 142.331 201.108 143.808C203.362 144.973 205.484 145.732 208.063 145.251C210.483 144.8 213.523 142.311 215.959 142.567C218.345 142.817 220.048 145.307 222.503 145.538C223.515 145.633 225.021 145.978 224.851 144.416C224.715 143.166 223.32 143.378 222.447 142.924C220.203 141.755 218.104 139.685 215.396 139.862C213.358 139.995 211.504 141.426 209.626 142.111C203.477 144.353 200.021 137.772 193.951 139.133Z" fill="#89C5CC"/>
<path fill-rule="evenodd" clip-rule="evenodd" d="M199.087 178.732C187.227 178.841 175.326 179.017 163.498 179.968C160.694 180.193 132.063 182.896 132.117 183.091C132.217 183.451 135.9 184.001 135.877 184.087C135.629 183.471 135.062 183.216 134.175 183.323C161.33 183.323 188.399 180.891 215.589 181.329C222.421 181.438 229.279 181.392 236.106 181.608C237.811 181.662 242.034 182.883 243.372 182.114C246.885 180.094 240.503 179.86 239.446 179.776C226.065 178.705 212.506 178.598 199.087 178.732Z" fill="#69A1AC"/>
<path fill-rule="evenodd" clip-rule="evenodd" d="M128.602 184.495C126.829 186.272 128.462 192.668 128.532 195.072C128.633 198.547 128.549 202.047 128.854 205.513C129.202 209.472 129.742 213.69 130.781 217.532C131.353 219.648 133.362 223.011 134.157 219.166C134.726 216.419 133.863 212.776 133.563 209.978C133.161 206.235 133.064 202.541 133.049 198.78C133.035 195.503 132.972 192.212 132.703 188.945C132.564 187.249 131.711 181.403 128.602 184.495Z" fill="#69A1AC"/>
<path fill-rule="evenodd" clip-rule="evenodd" d="M173.213 217.065C164.796 217.209 156.361 217.408 147.959 217.933C144.515 218.149 141.073 218.47 137.642 218.834C136.942 218.908 129.192 219.223 132.655 222.083C134.218 223.374 140.648 221.589 142.771 221.403C146.343 221.09 149.914 220.886 153.496 220.735C161.795 220.382 170.12 220.071 178.428 220.215C193.6 220.479 208.675 220.596 223.851 220.258C226.007 220.21 242.9 220.661 243.474 218.418C243.936 216.61 237.895 217.439 236.794 217.472C232.753 217.593 228.712 217.565 224.67 217.544C207.546 217.456 190.323 216.775 173.213 217.065Z" fill="#69A1AC"/>
<path fill-rule="evenodd" clip-rule="evenodd" d="M240.614 181.495C240.881 188.989 242.157 196.474 242.565 203.991C242.752 207.427 242.971 210.86 243.139 214.297C243.194 215.406 242.747 218.077 244.058 218.715C245.856 219.59 246.099 217.827 246.435 216.635C247.408 213.191 246.75 208.717 246.662 205.18C246.576 201.754 246.571 198.322 246.318 194.903C246.059 191.41 245.356 187.982 245.029 184.501C244.891 183.029 245.374 180.579 243.811 179.665C242.46 178.876 240.555 179.871 240.614 181.495Z" fill="#69A1AC"/>
<path fill-rule="evenodd" clip-rule="evenodd" d="M157.884 193.961C157.916 193.986 157.948 194.01 157.98 194.035C157.948 194.01 157.916 193.986 157.884 193.961ZM150.732 191.741C153.399 192.503 155.589 192.218 158.137 194.16C160.249 195.77 162.416 198.125 163.116 200.729C164.735 206.743 159.248 210.039 154.104 210.104C148.835 210.17 141.036 208.948 141.306 202.194C141.513 197.005 145.302 191.942 150.732 191.741ZM150.92 188.342C144.003 188.686 138.424 196.453 138.484 202.991C138.556 210.915 147.535 212.957 153.913 213.012C161.111 213.073 168.289 208.103 166.36 200.008C164.815 193.522 157.571 187.996 150.92 188.342Z" fill="#69A1AC"/>
<path fill-rule="evenodd" clip-rule="evenodd" d="M143.962 198.981C143.962 201.191 147.454 201.191 147.454 198.981C147.454 196.797 143.962 196.703 143.962 198.981Z" fill="#69A1AC"/>
<path fill-rule="evenodd" clip-rule="evenodd" d="M151.285 198.011C151.285 200.238 154.804 200.238 154.804 198.011C154.804 195.81 151.285 195.715 151.285 198.011Z" fill="#69A1AC"/>
<path fill-rule="evenodd" clip-rule="evenodd" d="M147.248 203.051C144.976 205.32 152.958 209.297 154.841 206.141C156.387 203.549 153.021 204.408 151.827 204.268C150.53 204.115 148.307 201.995 147.248 203.051Z" fill="#69A1AC"/>
<path fill-rule="evenodd" clip-rule="evenodd" d="M211.071 198.057C210.852 198.149 210.852 198.149 211.071 198.057V198.057ZM181.094 194.364C178.793 194.795 171.242 197.342 171.14 200.072C170.954 205.034 178.349 199.952 179.955 199.299C184.317 197.527 186.609 201.143 190.991 201.334C194.797 201.499 198.296 198.242 201.881 198.627C205.638 199.031 207.445 203.027 211.781 200.905C214.075 199.783 214.017 198.053 211.442 197.89C209.885 197.791 208.816 198.434 207.193 197.764C204.655 196.718 203.633 195.013 200.596 195.284C198.304 195.488 196.233 196.78 193.996 197.28C188.874 198.424 186.032 193.439 181.094 194.364Z" fill="#69A1AC"/>
<path fill-rule="evenodd" clip-rule="evenodd" d="M228.742 200.211C228.584 200.278 228.584 200.278 228.742 200.211V200.211ZM229.323 198.145C229.348 198.156 229.522 198.397 229.323 198.145V198.145ZM226.685 196.568C226.586 196.645 226.586 196.645 226.685 196.568V196.568ZM226.743 196.549C227.254 196.855 231.366 199.667 228.38 200.329C226.863 200.665 225.609 197.614 226.743 196.549ZM225.381 193.434C218.794 196.437 225.882 207.185 231.052 202.818C233.227 200.98 233.513 197.266 231.397 195.352C230.129 194.205 227.102 192.648 225.381 193.434Z" fill="#69A1AC"/>
<path fill-rule="evenodd" clip-rule="evenodd" d="M163.548 235.787C155.329 235.789 147.037 235.616 138.829 236.104C137.448 236.186 132.186 235.923 131.474 237.367C130.172 240.008 135.586 238.697 136.373 238.618C152.716 236.982 169.789 237.923 186.186 238.389C199.597 238.77 212.936 239.007 226.33 239.698C229.851 239.88 233.369 240.081 236.887 240.293C238.034 240.362 240.92 241.122 241.162 239.291C241.386 237.596 237.785 237.978 236.886 237.931C229.734 237.554 222.587 237.16 215.437 236.758C198.227 235.787 180.785 235.783 163.548 235.787Z" fill="#89C5CC"/>
<path fill-rule="evenodd" clip-rule="evenodd" d="M131.21 238.724C129.675 240.25 130.394 246.077 130.351 248.003C130.276 251.372 130.117 254.738 130.046 258.106C129.972 261.626 130.075 265.162 130.283 268.677C130.37 270.153 131.582 277.285 133.489 273.204C134.341 271.38 133.468 266.299 133.481 264.232C133.505 260.471 133.707 256.725 133.894 252.969C134.055 249.74 134.061 246.508 134.203 243.278C134.247 242.248 134.369 235.555 131.21 238.724Z" fill="#89C5CC"/>
<path fill-rule="evenodd" clip-rule="evenodd" d="M242.545 268.814C234.546 269.634 226.418 269.246 218.389 269.852C211.469 270.374 204.555 270.587 197.618 270.734C181.907 271.066 166.17 271.389 150.506 272.698C146.936 272.996 143.37 273.313 139.79 273.473C138 273.553 130.488 272.738 129.929 274.625C128.976 277.839 137.009 276.567 138.742 276.517C142.552 276.407 146.345 276.132 150.144 275.842C166.117 274.625 182.15 274.261 198.157 273.756C206.862 273.481 215.507 272.844 224.193 272.264C228.522 271.976 232.863 271.966 237.192 271.686C238.325 271.613 242.335 271.758 243.149 270.846C243.709 270.22 243.851 268.692 242.545 268.814Z" fill="#89C5CC"/>
<path fill-rule="evenodd" clip-rule="evenodd" d="M239.833 239.27C240.108 246.941 240.541 254.606 240.8 262.277C240.878 264.583 240.181 268.718 241.466 270.752C243.531 274.023 245.143 270.561 245.521 268.523C246.715 262.09 245.432 254.983 245.098 248.511C244.972 246.041 245.738 240.545 244.545 238.335C243.408 236.23 239.731 236.441 239.833 239.27Z" fill="#89C5CC"/>
<path fill-rule="evenodd" clip-rule="evenodd" d="M226.404 250.196C229.468 251.026 229.916 257.688 226.458 258.181C221.311 258.915 223.562 251.569 226.404 250.196ZM225.545 247.546C224.61 247.517 222.453 247.259 221.877 248.02C221.394 248.657 221.882 250 221.825 250.606C221.623 252.774 219.86 254.026 220.648 256.585C221.183 258.322 222.615 259.954 224.361 260.558C233.571 263.741 233.459 245.945 225.545 247.546Z" fill="#89C5CC"/>
<path fill-rule="evenodd" clip-rule="evenodd" d="M142.391 248.741C142.368 248.771 142.345 248.8 142.322 248.829C142.345 248.8 142.368 248.771 142.391 248.741ZM149.625 244.892C149.589 244.585 149.553 244.276 149.516 243.968C154.51 246.325 158.484 250.71 156.826 256.596C155.561 261.086 150.989 262.678 146.731 261.57C142.016 260.342 139.763 256.457 141.035 251.685C141.621 249.484 143.422 246.525 145.75 245.818C146.833 245.488 149.23 246.328 149.625 244.892ZM146.705 243.028C145.441 243.113 144.212 243.64 143.181 244.36C144.146 243.543 145.432 243.057 146.705 243.028ZM146.741 240.128C143.62 240.224 141.576 242.113 139.725 244.381C139.144 245.094 137.18 246.981 137.423 247.941C137.615 248.699 138.119 249.809 139.178 248.963C133.629 260.022 147.964 269.455 156.715 261.764C164.882 254.587 156.779 239.792 146.741 240.128Z" fill="#89C5CC"/>
<path fill-rule="evenodd" clip-rule="evenodd" d="M143.906 250.401C143.906 251.874 146.192 251.874 146.192 250.401C146.192 248.929 143.906 248.929 143.906 250.401Z" fill="#89C5CC"/>
<path fill-rule="evenodd" clip-rule="evenodd" d="M147.807 250.653C147.807 252.149 150.13 252.149 150.13 250.653C150.13 249.156 147.807 249.156 147.807 250.653Z" fill="#89C5CC"/>
<path fill-rule="evenodd" clip-rule="evenodd" d="M149.577 255.909C148.491 255.997 144.513 255.628 143.814 256.58C142.647 258.17 144.51 258.226 145.424 258.398C146.248 258.552 149.83 258.465 150.335 257.733C150.781 257.087 150.676 255.815 149.577 255.909Z" fill="#89C5CC"/>
<path fill-rule="evenodd" clip-rule="evenodd" d="M197.506 251.784C197.319 251.861 197.319 251.861 197.506 251.784V251.784ZM182.475 250.684C180.026 250.864 177.952 252.273 175.611 252.835C173.112 253.435 172.03 252.331 169.758 251.609C167.394 250.858 165.713 251.155 163.813 252.769C162.736 253.684 160.374 255.789 161.047 257.414C162.588 261.134 166.075 255.082 167.716 254.801C170.275 254.362 172.551 256.599 175.502 255.959C178.176 255.38 180.549 253.544 183.342 253.524C185.677 253.507 187.878 254.785 190.183 255.094C193.703 255.566 196.014 254.317 199.268 253.389C202.089 252.584 204.068 253.645 206.722 254.538C207.934 254.945 211.982 256.428 211.237 253.74C211.026 252.98 205.693 251.622 204.866 251.361C201.95 250.44 200.104 250.799 197.326 251.858C195.01 252.742 193.062 253.172 190.578 252.686C187.842 252.15 185.353 250.466 182.475 250.684Z" fill="#89C5CC"/>
</g>
<path opacity="0.5" fill-rule="evenodd" clip-rule="evenodd" d="M512.949 115.449C509.474 115.52 500.892 116.864 499.616 121.236C498.648 124.555 501.525 123.826 503.066 122.619C505.152 120.986 506.981 120.009 509.566 119.512C519.411 117.618 528.871 124.409 538.621 125.268C542.315 125.593 546.772 125.805 550.299 124.533C552.81 123.627 553.138 121.652 550.272 121.351C547.837 121.096 545.142 121.901 542.645 121.878C532.315 121.784 523.132 115.242 512.949 115.449Z" fill="#C1DEE2"/>
<g opacity="0.5">
<path fill-rule="evenodd" clip-rule="evenodd" d="M295.146 127.408C295.541 118.905 296.085 110.414 296.371 101.906C296.513 97.6906 296.624 93.4743 296.732 89.2576C296.756 88.3186 296.78 87.3801 296.801 86.4411C296.871 83.2513 296.493 82.9903 299.703 82.7072C314.023 81.4431 328.4 81.0241 342.739 79.8805C360.03 78.5012 377.412 77.5488 394.753 77.1219C402.459 76.9318 410.198 76.5382 417.905 76.7777C419.613 76.8308 422.965 76.3865 423.637 77.7139C423.927 78.2873 423.318 80.2606 423.241 80.9224C422.999 82.9895 422.774 85.0638 422.635 87.1413C421.815 99.3938 422.304 111.955 424.676 124.022C419.111 120.884 412.079 118.184 405.592 118.72C398.978 119.266 394.031 123.087 388.738 126.604C385.743 128.593 384.735 129.116 381.747 127.189C379.173 125.528 376.737 123.63 374.309 121.766C370.561 118.89 367.023 115.771 363.389 112.756C356.706 107.212 347.499 99.3205 338.269 101.644C331.674 103.304 325.585 106.928 319.861 110.475C311.358 115.745 303.66 122.198 295.146 127.408ZM409.754 73.0018C376.899 73.0018 344.289 76.1869 311.526 77.9099C308.105 78.0897 304.695 78.3547 301.285 78.6837C299.013 78.9031 293.456 77.982 291.967 79.9236C290.973 81.219 291.827 81.4134 291.967 82.6442C292.143 84.1954 292.038 86.0333 291.993 87.6751C291.884 91.6312 291.769 95.587 291.679 99.5435C291.34 114.497 291.128 129.447 291.733 144.397C291.865 147.657 293.053 152.171 292.403 155.339C291.933 157.633 290.359 159.029 293.987 159.452C297.557 159.87 301.922 158.809 305.495 158.469C309.088 158.127 312.681 157.756 316.279 157.459C331.922 156.17 347.716 156.365 363.4 155.936C379.225 155.504 395.056 155.477 410.886 155.468C417.51 155.464 425.078 155.836 431.541 154.014C433.815 153.372 434.183 153.056 433.622 150.8C433.516 150.372 432.829 150.214 432.628 149.44C432.354 148.387 432.494 147.107 432.43 146.011C432.221 142.431 432.148 138.845 431.979 135.263C431.698 129.277 430.666 123.469 429.903 117.544C429.023 110.701 429.068 103.753 429.05 96.8661C429.04 93.0458 429.138 89.2382 429.444 85.4286C429.641 82.9852 430.845 79.3372 430.234 77.0585C429.931 75.924 429.433 75.0242 428.252 74.5359C427.504 74.2263 426.875 74.4686 426.135 74.3902C425.258 74.2972 424.711 74.174 423.66 73.936C419.158 72.9155 414.343 73.0018 409.754 73.0018Z" fill="#69A1AC"/>
<path fill-rule="evenodd" clip-rule="evenodd" d="M391.572 89.2692C391.569 91.6504 391.198 95.1642 392.295 97.4064C393.688 100.251 395.43 99.3615 395.891 96.6888C396.156 95.1574 396.149 90.6255 395.657 89.2692C394.961 87.3493 391.572 86.0417 391.572 89.2692Z" fill="#89C5CC"/>
<path fill-rule="evenodd" clip-rule="evenodd" d="M395.567 90.1887C393.332 90.2675 386.821 89.7309 385.309 91.5284C382.714 94.6113 387.231 95.1574 389.17 94.9847C391.414 94.7851 398.349 95.2722 399.852 93.4728C402.366 90.4623 397.325 90.1245 395.567 90.1887Z" fill="#89C5CC"/>
<path fill-rule="evenodd" clip-rule="evenodd" d="M308.817 169.738C318.645 171.445 315.587 186.429 306.288 182.959C303.048 181.749 298.273 178.255 300.064 174.137C301.402 171.061 305.762 169.445 308.817 169.738ZM304.748 165.079C298.356 166.155 293.987 173.071 296.178 179.105C298.292 184.925 306.311 189.187 312.224 187.096C317.869 185.099 320.686 177.587 318.783 172.093C316.794 166.352 310.316 164.141 304.748 165.079Z" fill="#89C5CC"/>
<path fill-rule="evenodd" clip-rule="evenodd" d="M364.525 171.49C362.079 171.694 359.964 173.407 357.502 173.71C355.2 173.994 353.292 173.206 351.136 172.576C348.531 171.816 346.141 171.481 343.479 172.157C341.444 172.674 339.437 174.058 337.324 174.225C333.165 174.554 328.331 169.809 325.084 175.175C323.528 177.748 325.788 179.405 328.116 178.206C330.543 176.955 329.352 176.507 332.363 177.246C334.875 177.862 336.905 178.196 339.421 177.333C341.701 176.551 343.702 175.121 346.179 174.96C348.605 174.803 350.715 175.908 353.034 176.384C355.885 176.97 358.408 176.527 361.11 175.633C363.68 174.783 364.705 174.318 367.298 175.076C368.94 175.557 372.528 177.082 374.126 175.853C376.889 173.727 373.19 173.416 371.733 173.114C369.387 172.628 366.96 171.291 364.525 171.49Z" fill="#89C5CC"/>
<path fill-rule="evenodd" clip-rule="evenodd" d="M420.519 170.062C420.539 170.077 420.558 170.093 420.577 170.108C420.558 170.093 420.538 170.077 420.519 170.062ZM418.117 169.56C421.689 169.79 425.552 176.297 420.819 176.528C417.487 176.691 413.76 170.993 418.117 169.56ZM417.616 164.235C406.32 167.389 411.484 183.314 422.379 181.475C427.328 180.639 429.005 174.906 427.369 170.662C426.667 168.839 425.297 167.302 423.659 166.253C422.452 165.479 418.996 163.851 417.616 164.235Z" fill="#89C5CC"/>
<path fill-rule="evenodd" clip-rule="evenodd" d="M364.917 197.48C374.857 197.139 384.797 196.798 394.747 196.706C400.14 196.656 405.503 196.75 410.887 197.059C413.275 197.196 415.662 197.328 418.052 197.429C418.463 197.447 419.033 197.419 419.662 197.388C421.141 197.315 422.947 197.226 423.797 197.676C428.55 200.19 418.866 200.466 417.689 200.446C415.053 200.402 412.419 200.271 409.786 200.141C407.484 200.027 405.182 199.914 402.878 199.857C388.098 199.494 373.228 200.158 358.423 200.819C355.029 200.971 351.639 201.122 348.254 201.261C344.66 201.408 341.066 201.504 337.473 201.599C332.337 201.736 327.202 201.872 322.065 202.161C320.104 202.271 318.144 202.388 316.183 202.504L316.183 202.504L316.183 202.504L316.183 202.504L316.183 202.504C313.373 202.672 310.564 202.839 307.754 202.987C305.555 203.103 303.354 203.215 301.151 203.271C300.754 203.281 300.237 203.336 299.673 203.396C298.308 203.542 296.664 203.717 295.777 203.354C294.709 202.917 293.845 202.307 294.432 201.013C294.929 199.919 296.733 200.05 298.049 200.145C298.408 200.172 298.731 200.195 298.981 200.19C303.185 200.109 307.381 199.873 311.578 199.616C313.114 199.522 314.649 199.425 316.184 199.328C324.174 198.826 332.158 198.324 340.169 198.187C348.421 198.046 356.669 197.763 364.917 197.48ZM416.83 262.899L419.688 262.864C421.164 262.992 421.824 264.541 420.877 265.732C420.151 266.644 417.359 266.685 415.539 266.712C415.035 266.719 414.606 266.725 414.315 266.749C409.564 267.131 404.823 267.303 400.058 267.348C390.023 267.444 380.027 267.874 370.009 268.445C359.754 269.03 349.49 269.249 339.226 269.469H339.226L339.225 269.469C331.674 269.631 324.122 269.793 316.574 270.1C312.251 270.276 307.928 270.407 303.603 270.521C303.138 270.533 302.52 270.599 301.821 270.675C299.089 270.97 295.12 271.399 294.22 269.229C293.422 267.304 294.531 266.417 296.154 266.014C295.898 264.874 295.945 263.272 295.972 262.354C295.981 262.078 295.987 261.864 295.983 261.743C295.942 260.592 295.913 259.441 295.885 258.29C295.853 256.986 295.821 255.682 295.77 254.378C295.725 253.195 295.682 252.011 295.64 250.826C295.472 246.152 295.305 241.468 294.945 236.813C294.779 234.665 294.516 232.541 294.253 230.422C293.833 227.038 293.415 223.662 293.395 220.207C293.392 219.586 293.361 218.808 293.326 217.932C293.146 213.446 292.862 206.355 295.647 204.195C300.556 201.33 299.586 209.599 299.152 213.29C299.081 213.899 299.024 214.384 299.011 214.672C298.729 220.809 299.111 226.675 299.729 232.773C300.146 236.891 299.902 240.995 299.659 245.106C299.571 246.574 299.484 248.044 299.427 249.514C299.399 250.242 299.374 250.97 299.349 251.697C299.271 253.935 299.194 256.171 299.025 258.407C299.007 258.649 299.001 259.113 298.993 259.705C298.971 261.377 298.936 264.073 298.578 265.71C299.34 265.677 300.079 265.686 300.69 265.692H300.69C301.079 265.696 301.416 265.7 301.674 265.692C302.846 265.657 304.018 265.623 305.19 265.588C308.652 265.487 312.114 265.385 315.575 265.255C323.746 264.948 331.919 264.845 340.093 264.743H340.093H340.093C349.747 264.621 359.401 264.5 369.05 264.042C384.953 263.286 400.91 263.092 416.83 262.899ZM419.78 202.907C419.772 213.419 420.585 223.642 421.534 234.112C422.122 240.588 422.593 247.089 422.968 253.581C422.985 253.881 422.982 254.383 422.979 255.011V255.012C422.96 258.601 422.919 266.337 426.467 264.487C429.146 263.089 428.116 254.988 427.547 250.505L427.547 250.504C427.422 249.521 427.319 248.712 427.282 248.186C427.204 247.065 427.127 245.944 427.051 244.823C426.694 239.618 426.337 234.418 425.868 229.219L425.769 228.124C425.225 222.119 424.682 216.12 424.586 210.087C424.578 209.588 424.626 208.893 424.68 208.108C424.837 205.838 425.046 202.814 424.103 201.607C422.776 199.91 419.783 200.412 419.78 202.907Z" fill="#69A1AC"/>
<path fill-rule="evenodd" clip-rule="evenodd" d="M365.372 228.677C378.068 222.933 390.912 217.122 404.114 212.984C405.068 212.685 405.671 213.67 405.455 214.495C405.231 215.346 403.166 216.072 401.797 216.553C401.387 216.697 401.039 216.819 400.822 216.916C398.978 217.74 397.129 218.553 395.28 219.367C393.387 220.2 391.494 221.033 389.605 221.877C385.679 223.631 381.749 225.378 377.819 227.124C373.61 228.995 369.401 230.865 365.197 232.745C365.037 232.817 364.878 232.888 364.719 232.959C370.435 234.991 376.119 237.113 381.779 239.3C383.713 240.047 385.64 240.809 387.567 241.572C388.658 242.003 389.749 242.435 390.84 242.864C391.196 243.003 391.815 243.192 392.558 243.419C394.982 244.159 398.732 245.304 399.009 246.461C399.46 248.344 394.283 246.522 392.33 245.835C392.071 245.743 391.869 245.672 391.744 245.632C388.862 244.711 386.015 243.685 383.169 242.659C383.038 242.612 382.906 242.565 382.775 242.517C380.52 241.705 378.267 240.883 376.015 240.062C371.616 238.458 367.217 236.854 362.793 235.315C362.168 235.097 361.542 234.88 360.916 234.664C353.817 237.852 346.733 241.071 339.672 244.341C335.886 246.095 332.12 247.889 328.364 249.708C327.545 250.104 326.53 250.718 325.427 251.384C322.784 252.982 319.638 254.883 317.474 254.836C316.314 254.81 315.532 254.561 315.41 253.155C315.286 251.704 317.148 250.942 318.487 250.395C318.807 250.264 319.098 250.145 319.324 250.032C323.338 248.024 327.377 246.068 331.427 244.136C339.471 240.299 347.591 236.615 355.74 233.005C355.786 232.984 355.833 232.963 355.88 232.942C351.361 231.413 346.829 229.92 342.288 228.458C341.834 228.313 340.904 228.055 339.682 227.717C333.909 226.118 321.609 222.711 322.157 220.721C322.785 218.445 334.316 222.605 339.421 224.447C340.377 224.792 341.108 225.056 341.5 225.181C347.603 227.126 353.689 229.126 359.744 231.217C361.617 230.375 363.493 229.527 365.372 228.677Z" fill="#89C5CC"/>
<path fill-rule="evenodd" clip-rule="evenodd" d="M310.973 278.667C314.689 279.319 317.31 282.884 316.903 286.617C316.352 291.662 311.324 293.974 306.68 293.315C301.41 292.569 300.301 288.113 302.854 283.827C303.42 282.879 304.07 281.743 305.097 281.243C305.804 280.9 306.704 281.204 307.273 280.927C309.267 279.956 308.068 278.41 310.973 278.667ZM309.281 275.372C304.746 275.952 296.367 281.199 296.791 286.449C297.159 287.058 297.713 287.307 298.451 287.197C298.274 288.334 298.331 289.459 298.625 290.572C299.056 292.017 299.915 293.202 301.067 294.143C303.438 296.081 306.68 296.556 309.633 296.217C315.147 295.583 319.493 291.814 319.803 286.079C320.105 280.481 315.218 274.622 309.281 275.372Z" fill="#89C5CC"/>
<path fill-rule="evenodd" clip-rule="evenodd" d="M331.245 282.204C329.21 283.282 325.991 284.939 324.798 286.987C323.538 289.15 324.843 291.517 327.499 290.493C329.607 289.681 330.948 287.1 333.197 286.273C335.182 285.543 335.982 285.915 338.079 286.642C340.241 287.391 342.13 288.114 344.466 287.931C347.403 287.7 349.946 285.997 352.821 285.61C355.241 285.283 357.237 286.225 359.555 286.6C362.244 287.034 364.002 286.016 366.518 285.487C368.229 285.126 371.246 286.593 372.494 286.044C375.301 284.81 372.332 283.301 370.778 282.803C368.16 281.963 366.55 282.704 364.06 283.4C361.357 284.156 360.19 283.588 357.606 282.894C352.379 281.489 348.34 284.885 343.386 284.268C338.798 283.696 336.053 279.658 331.245 282.204Z" fill="#89C5CC"/>
<path fill-rule="evenodd" clip-rule="evenodd" d="M416.72 279.695C421.752 284.412 416.099 291.123 410.551 287.353C408.599 286.026 408.568 283.895 410.087 281.988C411.477 280.244 414.531 279.564 416.72 279.695ZM414.855 275.883C410.154 276.797 405.72 278.954 405.295 284.379C404.879 289.673 410.309 292.131 414.87 291.784C425.111 291.004 424.37 274.043 414.855 275.883Z" fill="#89C5CC"/>
</g>
<g opacity="0.5">
<path fill-rule="evenodd" clip-rule="evenodd" d="M131.124 311.314C123.93 311.395 116.739 311.66 109.56 312.115C102.732 312.547 95.3232 312.219 88.6065 313.542C86.6993 313.918 84.1229 315.656 86.6589 317.568C88.4414 318.912 94.9629 317.366 97.0915 317.235C104.93 316.754 112.773 316.176 120.623 315.899C128.054 315.636 135.485 315.544 142.92 315.47C144.055 315.459 145.94 315.094 147.07 315.424C148.694 315.898 148.309 316.027 148.43 318.088C148.651 321.824 148.59 325.572 148.516 329.311C148.444 332.93 148.31 336.547 148.323 340.167C148.333 342.75 147.507 347.881 148.803 350.124C150.668 353.352 152.603 349.846 152.743 347.701C153.009 343.598 152.89 339.444 152.891 335.336C152.892 331.48 152.919 327.624 152.784 323.77C152.685 320.985 153.083 316.125 151.583 313.594C150.056 311.016 146.378 311.572 143.694 311.449C139.508 311.257 135.314 311.27 131.124 311.314Z" fill="#89C5CC"/>
<path fill-rule="evenodd" clip-rule="evenodd" d="M85.3511 315.967C85.359 323.212 84.5208 330.409 84.286 337.646C84.1783 340.974 83.9598 344.628 84.8015 347.894C85.6512 351.192 88.3499 351.907 88.6607 348.225C89.2903 340.769 89.1358 333.038 89.626 325.522C89.799 322.869 90.9251 318.006 89.8739 315.521C88.9482 313.333 85.3471 312.913 85.3511 315.967Z" fill="#89C5CC"/>
<path fill-rule="evenodd" clip-rule="evenodd" d="M152.813 347.904C140.319 349.558 127.258 348.955 114.675 349.215C108.638 349.339 102.602 349.347 96.5647 349.41C94.4575 349.432 89.1064 348.631 87.2835 349.815C84.3817 351.701 87.5302 353.156 89.4513 353.198C101.366 353.459 113.414 352.911 125.326 352.52C130.679 352.344 136.048 352.258 141.386 351.804C144.673 351.523 148.264 351.252 151.455 350.369C152.135 350.18 153.615 350.22 153.768 349.292C153.862 348.719 153.691 347.783 152.813 347.904Z" fill="#89C5CC"/>
<path fill-rule="evenodd" clip-rule="evenodd" d="M100.86 358.436C97.3877 358.456 86.9238 356.843 85.4858 360.229C83.5686 364.745 91.0475 363.691 93.0589 363.639C97.6272 363.522 102.192 363.509 106.762 363.511C111.245 363.513 115.729 363.484 120.211 363.378C121.51 363.346 124.533 363.886 125.28 362.322C125.848 361.133 125.399 360.195 124.352 359.566C121.832 358.052 115.286 358.93 112.336 358.794C108.517 358.618 104.684 358.436 100.86 358.436Z" fill="#89C5CC"/>
<path fill-rule="evenodd" clip-rule="evenodd" d="M143.104 359.272C141.119 359.39 137.105 358.572 135.328 359.48C133.307 360.512 134.019 362.128 135.763 362.839C136.971 363.33 141.927 363.072 143.104 362.503C144.33 361.909 145.717 359.111 143.104 359.272Z" fill="#89C5CC"/>
<path fill-rule="evenodd" clip-rule="evenodd" d="M164.86 316.678C162.741 317.26 163.384 329.292 163.329 331.2C163.179 336.426 162.592 342.999 164.328 348.032C165.436 351.241 167.563 350.806 167.2 347.427C166.882 344.463 166.336 341.532 166.1 338.548C165.565 331.795 164.838 324.592 165.343 317.834C165.558 318.227 167.568 321.869 168.041 321.597C167.898 321.682 165.722 316.451 164.86 316.678Z" fill="#89C5CC"/>
<path fill-rule="evenodd" clip-rule="evenodd" d="M188.701 312.246C184.412 312.31 180.123 312.386 175.835 312.505C172.425 312.6 167.068 312.039 163.941 313.474C160.218 315.181 161.984 318.986 165.481 319.066C168.575 319.137 171.874 318.44 174.995 318.333C183.427 318.044 191.873 317.983 200.309 317.911C207.938 317.845 215.891 318.659 223.453 317.513C224.575 327.473 221.541 337.475 222.573 347.549C222.733 349.113 222.661 351.322 224.652 351.678C227.165 352.128 227.268 349.639 227.364 347.856C227.636 342.767 227.489 337.674 227.861 332.578C228.206 327.856 228.886 323.03 228.312 318.3C227.605 312.48 224.816 312.946 219.886 312.704C209.473 312.194 199.125 312.093 188.701 312.246Z" fill="#89C5CC"/>
<path fill-rule="evenodd" clip-rule="evenodd" d="M174.326 347.612C172.141 347.667 168.511 346.994 167.11 349.09C165.653 351.27 167.382 353.172 169.501 353.62C172.009 354.149 175.279 353.423 177.882 353.415C180.592 353.407 183.303 353.438 186.014 353.448C197.635 353.494 209.306 353.67 220.919 353.189C222.541 353.122 227.144 353.666 228.266 352.11C229.262 350.731 228.566 349.493 227.254 348.79C225.101 347.637 220.681 348.076 218.287 347.984C215.33 347.872 212.37 347.835 209.412 347.789C197.737 347.608 186.001 347.324 174.326 347.612Z" fill="#89C5CC"/>
<path fill-rule="evenodd" clip-rule="evenodd" d="M184.157 357.693C179.808 357.767 175.168 357.576 170.862 358.236C167.076 358.816 166.61 362.475 170.686 362.904C174.431 363.297 178.971 362.562 182.735 362.32C184.071 362.234 185.626 362.356 186.266 360.878C186.935 359.335 185.657 357.854 184.157 357.693Z" fill="#89C5CC"/>
<path fill-rule="evenodd" clip-rule="evenodd" d="M217.035 358.077C214.714 358.135 207.934 357.137 206.784 359.788C204.87 364.202 214.048 362.525 215.809 362.46C218.028 362.379 226.678 363.674 226.68 360.141C226.682 356.677 219.16 358.024 217.035 358.077Z" fill="#89C5CC"/>
<path fill-rule="evenodd" clip-rule="evenodd" d="M84.9757 380.01C84.9813 388.04 84.4816 396.145 85.2141 404.154C85.517 407.467 85.4651 413.813 87.3838 416.621C88.7458 418.615 90.6349 418.475 91.3788 416.081C91.8761 414.481 91.0807 411.281 90.992 409.569C90.9065 407.926 90.8067 406.284 90.7307 404.641C90.5355 400.408 90.5509 396.181 90.6091 391.945C90.659 388.312 91.5336 383.505 90.7089 380.01C89.94 376.754 84.9757 375.993 84.9757 380.01Z" fill="#69A1AC"/>
<path fill-rule="evenodd" clip-rule="evenodd" d="M165.675 372.947C151.744 373.296 137.781 372.984 123.863 373.673C116.998 374.013 110.161 374.76 103.331 375.505C99.9752 375.871 96.6216 376.248 93.272 376.661C92.2611 376.785 83.8617 377.111 87.0209 380.305C88.4004 381.7 92.7901 380.243 94.5271 380.037C97.8902 379.64 101.26 379.294 104.628 378.938C111.037 378.26 117.453 377.618 123.889 377.261C139.047 376.422 154.267 376.674 169.44 376.114C173.544 375.962 177.636 375.854 181.742 376.016C182.82 376.058 190.743 376.46 187.303 373.534C185.676 372.15 179.544 372.865 177.511 372.823C173.566 372.741 169.618 372.847 165.675 372.947Z" fill="#69A1AC"/>
<path fill-rule="evenodd" clip-rule="evenodd" d="M184.666 386.475C184.597 382.765 184.528 379.055 184.359 375.348C184.182 371.445 189.499 370.853 191.076 374.013C192.211 376.288 192.012 380.158 191.841 383.476C191.772 384.813 191.707 386.06 191.737 387.077C191.805 389.407 191.976 391.816 192.15 394.257C192.587 400.4 193.038 406.747 191.89 412.546C191.332 415.364 188.954 416.845 187.372 415.309C187.37 415.312 187.368 415.316 187.365 415.319C186.77 416.196 184.917 416.194 183.553 416.192C183.177 416.192 182.839 416.192 182.573 416.21C178.835 416.464 175.167 416.892 171.462 417.448C164.08 418.554 156.762 419.234 149.3 419.419C144.237 419.544 139.167 419.586 134.096 419.628C124.385 419.709 114.668 419.79 104.988 420.454C101.724 420.678 98.5102 421.062 95.2999 421.677C95.0267 421.729 94.7232 421.797 94.4002 421.868C92.0132 422.399 88.5576 423.168 88.3215 419.832C88.0409 415.873 96.6218 415.354 101.038 415.087C101.712 415.047 102.289 415.012 102.723 414.971C116.131 413.724 129.749 413.917 143.214 414.108C143.867 414.118 144.519 414.127 145.17 414.136C146.221 414.15 147.272 414.168 148.322 414.185C154.087 414.28 159.845 414.375 165.609 414.022C168.231 413.862 170.888 413.779 173.55 413.697C177.797 413.565 182.056 413.433 186.21 412.983C185.583 410.555 185.474 407.688 185.37 404.987C185.33 403.935 185.291 402.908 185.223 401.942C184.858 396.793 184.762 391.634 184.666 386.475Z" fill="#69A1AC"/>
<path fill-rule="evenodd" clip-rule="evenodd" d="M195.941 378.208C194.059 378.464 192.489 380.074 193.329 382.117C194.388 384.69 197.54 383.685 199.622 383.522C206.24 383.003 213.151 384.039 219.689 383.258C221.475 383.044 224.066 382.071 222.462 379.672C221.257 377.869 216.866 378.185 215 378.012C208.616 377.422 202.316 377.579 195.941 378.208Z" fill="#C1DEE2"/>
<path fill-rule="evenodd" clip-rule="evenodd" d="M207.111 389.43C204.545 389.603 198.569 389.467 197.488 392.387C195.548 397.627 203.147 395.781 205.461 395.483C208.149 395.136 214.486 396.063 215.917 393.457C218.476 388.795 209.362 389.275 207.111 389.43Z" fill="#C1DEE2"/>
<path fill-rule="evenodd" clip-rule="evenodd" d="M200.511 400.928C199.293 402.146 199.291 404.322 200.511 405.54C202.004 407.031 205.257 406.721 207.219 406.83C209.955 406.983 217.814 408.43 219.173 405.209C221.006 400.861 213.89 400.952 211.549 400.705C208.843 400.421 202.753 398.685 200.511 400.928Z" fill="#C1DEE2"/>
<path fill-rule="evenodd" clip-rule="evenodd" d="M104.589 326.512C104.589 331.186 111.889 331.186 111.889 326.512C111.889 321.864 104.589 321.793 104.589 326.512Z" fill="#89C5CC"/>
<path fill-rule="evenodd" clip-rule="evenodd" d="M118.436 326.565C118.436 331.909 126.75 331.898 126.75 326.565C126.75 321.241 118.436 321.186 118.436 326.565Z" fill="#89C5CC"/>
<path fill-rule="evenodd" clip-rule="evenodd" d="M110.059 333.67C106.018 334.786 109.741 338.211 111.618 338.993C114.6 340.237 118.671 341.154 121.654 339.289C122.841 338.547 123.805 337.561 122.935 336.121C122.008 334.588 120.739 335.27 119.328 335.411C117.541 335.591 116.096 335.564 114.37 334.99C113.081 334.562 111.465 333.283 110.059 333.67Z" fill="#89C5CC"/>
<path fill-rule="evenodd" clip-rule="evenodd" d="M183.372 326.808C183.372 329.97 188.281 329.97 188.281 326.808C188.281 323.647 183.372 323.647 183.372 326.808Z" fill="#89C5CC"/>
<path fill-rule="evenodd" clip-rule="evenodd" d="M194.228 327.284C194.228 330.796 199.681 330.797 199.681 327.284C199.681 323.771 194.228 323.772 194.228 327.284Z" fill="#89C5CC"/>
<path fill-rule="evenodd" clip-rule="evenodd" d="M193.824 334.907C190.96 335.276 182.675 336.116 182.211 339.647C181.496 345.094 190.574 340.685 192.646 340.258C195.285 339.713 197.641 339.855 200.276 339.961C201.722 340.019 203.646 340.253 203.495 338.05C203.246 334.432 196.328 334.586 193.824 334.907Z" fill="#89C5CC"/>
<path fill-rule="evenodd" clip-rule="evenodd" d="M121.801 385.144C119.725 385.697 117.009 389.287 118.437 391.484C120.78 395.087 121.813 389.555 122.793 389.022C124.577 388.053 126.025 391.594 127.889 389.737C130.83 386.806 123.653 384.648 121.801 385.144Z" fill="#69A1AC"/>
<path fill-rule="evenodd" clip-rule="evenodd" d="M145.592 382.48C143.13 382.503 137.931 385.989 137.563 388.563C137.345 390.092 138.359 391.562 140.007 391.582C142.252 391.61 142.966 388.691 144.912 388.08C147.011 387.422 146.699 388.938 148.512 389.724C149.839 390.3 151.498 390.059 151.959 388.427C152.829 385.35 148.122 382.432 145.592 382.48Z" fill="#69A1AC"/>
<path fill-rule="evenodd" clip-rule="evenodd" d="M126.744 397.218C122.805 399.526 129.286 404.473 131.532 405.092C134.924 406.025 141.75 404.283 142.554 400.14C142.874 398.491 141.842 396.998 140.022 397.293C138.524 397.536 137.563 399.415 136.175 400.088C134.302 400.997 132.637 400.935 131.045 399.568C129.749 398.454 129.054 395.871 126.744 397.218Z" fill="#69A1AC"/>
<path fill-rule="evenodd" clip-rule="evenodd" d="M129.598 431.319C126.08 432.07 122.503 431.566 118.967 432.272C115.362 432.992 113.207 434.354 109.857 432.981C109.7 432.915 109.542 432.848 109.385 432.782C106.793 431.665 104.075 431.334 101.362 433.114C99.7557 434.167 94.8805 437.81 95.468 440.033C96.7414 444.852 102.227 437.295 103.626 436.559C106.293 435.155 108.122 436.949 110.868 437.455C114.158 438.062 116.805 436.323 119.903 435.631C123.527 434.821 127.604 434.539 131.291 434.106C132.748 433.935 138.265 435.087 138.763 433.274C139.619 430.16 130.981 431.026 129.598 431.319Z" fill="#C1DEE2"/>
<path fill-rule="evenodd" clip-rule="evenodd" d="M154.985 441.024C155.03 441.059 155.215 441.199 154.985 441.024V441.024ZM164.84 431.131C167.852 430.825 177.49 428.673 179.469 431.786C180.758 433.814 178.712 441.297 176.761 442.264C175.202 443.037 171.569 442.183 169.858 442.122C166.673 442.01 163.483 441.96 160.302 441.762C159.235 441.695 155.803 441.891 154.967 440.947C153.979 439.832 154.023 433.89 153.791 432.416C156.56 433.312 161.944 431.425 164.84 431.131ZM171.272 428.079C167.414 428.246 163.557 428.536 159.728 429.054C157.593 429.342 155.431 430.109 153.459 430.472C152.824 430.59 151.793 430.265 151.013 430.641C148.736 431.741 150.73 439.179 151.279 441.166C152.123 444.218 154.245 444.713 157.219 445C161.137 445.38 165.134 445.261 169.064 445.212C172.852 445.166 177.96 446.005 180.085 442.205C181.459 439.747 182.933 434.024 181.758 431.286C180.213 427.682 174.445 427.946 171.272 428.079Z" fill="#C1DEE2"/>
<path fill-rule="evenodd" clip-rule="evenodd" d="M214.475 443.069C214.269 443.334 214.269 443.334 214.475 443.069V443.069ZM215.32 442.05C214.961 442.459 215.257 442.146 215.32 442.05V442.05ZM206.12 441.77C207.821 441.45 209.522 441.133 211.225 440.823C209.612 443.079 207.914 442.146 205.16 441.95C205.48 441.89 205.8 441.83 206.12 441.77ZM198.007 440.971C198.438 440.827 198.869 440.683 199.3 440.538C199.287 440.866 199.357 441.174 199.511 441.46C198.773 441.38 198.036 441.295 197.3 441.204C197.535 441.126 197.771 441.049 198.007 440.971ZM194.247 438.195C194.223 437.603 195.113 438.009 195.623 437.969C194.64 438.835 194.181 438.911 194.247 438.195ZM207.693 431.479C207.823 431.313 207.994 431.322 208.208 431.504C207.975 431.582 207.078 431.962 207.693 431.479ZM216.413 430.453C216.436 430.453 216.92 431.106 216.413 430.453V430.453ZM216.169 430.239C216.295 430.336 216.295 430.336 216.169 430.239V430.239ZM215.08 430.112C216.728 432.505 216.863 430.413 215.08 430.112V430.112ZM194.133 429.969C193.771 430.27 193.895 429.978 194.133 429.969V429.969ZM200.952 425.515C197.925 425.691 192.368 425.513 189.84 427.126C186.541 429.231 188.277 436.478 188.573 439.655C189.009 444.35 191.218 445.687 195.64 446.18C200.918 446.768 206.34 446.878 211.645 446.739C216.422 446.613 219.143 444.97 220.018 439.94C220.286 438.401 220.967 436.02 220.945 434.546C220.931 433.523 220.421 433.057 220.228 432.187C219.131 427.237 217.296 426.65 212.222 426.434C208.488 426.275 204.616 425.323 200.952 425.515Z" fill="#89C5CC"/>
</g>
<g opacity="0.5">
<path fill-rule="evenodd" clip-rule="evenodd" d="M361.293 311.785C368.989 311.949 377.721 316.208 376.504 325.231C375.613 331.841 369.889 337.208 363.261 337.67C356.137 338.167 348.605 332.7 347.637 325.446C346.549 317.288 353.768 311.622 361.293 311.785ZM357.519 308.112C354.4 308.577 351.418 310.216 348.671 311.683C347.623 312.244 342.306 315.661 346.476 316.509C336.429 332.713 360.074 347.763 373.368 337.232C379.337 332.503 382.48 323.538 378.621 316.519C374.63 309.261 365.165 306.963 357.519 308.112Z" fill="#89C5CC"/>
<path fill-rule="evenodd" clip-rule="evenodd" d="M355.681 321.904C355.681 324.93 360.378 324.93 360.378 321.904C360.378 318.877 355.681 318.877 355.681 321.904Z" fill="#89C5CC"/>
<path fill-rule="evenodd" clip-rule="evenodd" d="M364.39 322.388C364.39 325.669 369.482 325.669 369.482 322.388C369.482 319.107 364.39 319.107 364.39 322.388Z" fill="#89C5CC"/>
<path fill-rule="evenodd" clip-rule="evenodd" d="M358.512 328.877C357.827 331.366 365.641 332.643 365.902 329.762C366.025 328.385 358.989 327.14 358.512 328.877Z" fill="#89C5CC"/>
<path fill-rule="evenodd" clip-rule="evenodd" d="M381.42 327.338C390.412 326.259 399.683 326.758 408.718 327.017C410.98 327.082 413.241 327.145 415.502 327.183C416.94 327.207 420.045 327.897 421.3 327.224C426.438 324.469 416.358 323.136 414.931 323.009C405.944 322.27 392.074 322.006 383.06 322.355C380.394 322.458 379.818 327.53 381.42 327.338Z" fill="#89C5CC"/>
<path fill-rule="evenodd" clip-rule="evenodd" d="M421.882 372.039C421.96 362.617 422.297 353.132 423.022 343.739C423.316 339.91 423.67 336.086 423.964 332.258C424.102 330.454 424.743 327.928 423.683 326.346C422.59 324.715 420.194 324.376 418.75 325.821C417.021 328.059 417.524 331.814 417.309 334.521C416.978 338.683 416.579 342.842 416.381 347.012C415.997 355.085 415.907 363.298 416.556 371.359C416.862 375.163 417.526 378.874 418.41 382.584C418.812 384.273 422.013 391.795 421.34 392.832C420.297 394.441 412.59 393.833 410.918 393.878C406.628 393.993 402.336 394.068 398.045 394.15C394.371 394.22 390.697 394.27 387.023 394.303C385.564 394.316 376.992 394.056 378.893 396.219C357.629 397.701 335.959 395.227 314.825 394.379C313.758 394.336 312.011 394.033 310.399 393.945C310.206 393.167 310.047 392.471 310.008 391.987C309.73 388.591 309.657 385.182 309.356 381.787C308.805 375.574 307.737 369.423 307.101 363.221C306.467 357.025 306.531 350.811 306.161 344.6C306.098 343.536 305.949 334.818 303.749 332.7C304.792 333.095 306.473 333.147 307.442 333.069C315.282 332.436 323.064 331.074 330.837 329.905C333.061 329.571 338.107 329.807 339.952 328.696C341.548 327.733 342.18 324.36 339.403 324.633C331.652 325.463 323.944 326.751 316.254 328.02C314.197 328.359 312.146 328.722 310.095 329.093C308.725 329.34 305.109 329.321 304.047 330.147C302.756 331.15 302.619 331.832 303.057 332.285C302.449 332.118 301.72 332.381 300.845 333.257C299.19 335.41 300.746 340.714 300.943 343.239C301.18 346.268 301.296 349.302 301.435 352.337C301.701 358.209 302.316 364 303.261 369.802C304.319 376.301 305.22 382.827 306.281 389.324C306.558 391.016 306.918 392.666 307.378 394.3C304.518 395.763 306.462 398.089 308.73 398.501C308.747 398.504 308.764 398.507 308.78 398.509C309.487 400.234 310.475 401.831 311.248 399.521C311.307 399.344 311.334 399.125 311.342 398.88C317.199 399.543 323.638 399.131 329.405 399.367C341.897 399.878 354.466 400.644 366.971 400.255C371.921 400.102 376.887 399.662 381.796 399.001C384.672 398.614 387.559 398.153 390.389 397.511C390.591 397.466 390.9 397.417 391.256 397.359C391.314 397.357 391.373 397.356 391.428 397.355C395.761 397.289 400.091 397.173 404.421 396.993C408.055 396.842 411.706 396.765 415.329 396.422C417.579 396.209 422.335 396.248 423.716 393.985C424.972 391.928 422.872 386.627 422.574 384.316C422.049 380.247 421.849 376.139 421.882 372.039Z" fill="#C1DEE2"/>
<path fill-rule="evenodd" clip-rule="evenodd" d="M377.967 344.835C374.504 345.131 371.302 346.757 367.808 346.778C364.875 346.794 361.987 345.918 359.038 346.047C355.578 346.198 353.675 348.435 350.644 349.184C348.232 349.78 346.712 347.933 344.59 347.116C341.911 346.084 339.932 346.617 337.635 348.177C335.948 349.324 332.012 351.897 332.043 354.216C332.133 361.241 340.329 351.537 341.981 351.419C344.176 351.263 346.629 353.765 348.964 353.908C352.053 354.097 354.032 352.106 356.876 351.381C359.752 350.647 362.86 351.546 365.743 351.825C369.032 352.143 371.91 351.41 375.092 350.625C378.176 349.864 380.804 349.904 383.937 350.543C386.052 350.974 391.32 353.482 392.245 350.258C393.505 345.867 380.388 344.629 377.967 344.835Z" fill="#89C5CC"/>
<path fill-rule="evenodd" clip-rule="evenodd" d="M379.021 358.233C371.926 358.921 364.787 359.525 357.66 359.718C354.573 359.802 342.706 358.479 343.758 362.402C344.66 365.765 360.809 363.648 364.099 363.391C367.73 363.109 371.356 362.715 374.969 362.258C376.25 362.096 379.342 362.263 380.246 361.19C381.107 360.165 380.682 358.066 379.021 358.233Z" fill="#89C5CC"/>
<path fill-rule="evenodd" clip-rule="evenodd" d="M330.075 376.097C329.913 376.165 329.913 376.165 330.075 376.097V376.097ZM331.571 376.077C333.34 376.021 332.961 375.088 334.725 375.574C335.539 375.798 335.623 375.465 336.254 376.243C337.485 377.761 336.325 381.066 335.112 382.288C330.619 386.816 325.227 376.278 331.571 376.077ZM331.571 371.634C319.271 372.047 324.418 391.048 335.123 387.169C339.544 385.567 342.323 378.351 339.723 374.296C338.458 372.323 336.845 371.972 334.726 371.835C334.234 371.804 333.615 372.519 333.307 372.486C332.578 372.409 332.646 371.594 331.571 371.634Z" fill="#89C5CC"/>
<path fill-rule="evenodd" clip-rule="evenodd" d="M360.985 376.748C360.766 376.68 364.869 377.873 364.42 377.406C365.378 378.402 364.09 380.758 363.006 381.17C360.382 382.166 358.909 378.085 360.985 376.748ZM362.806 371.596C358.955 372.142 355.982 373.745 355.456 378.028C354.97 381.981 357.641 385.984 361.854 386.061C371.037 386.229 371.317 370.408 362.806 371.596Z" fill="#89C5CC"/>
<path fill-rule="evenodd" clip-rule="evenodd" d="M404.728 376.921C397.986 377.515 405.266 383.94 404.728 376.921V376.921ZM401.604 369.411C400.968 370.499 401.51 371.654 402.471 372.286C393.885 374.101 395.829 387.021 404.567 385.113C409.01 384.142 409.827 379.47 409.165 375.612C408.849 373.778 404.278 364.839 401.604 369.411Z" fill="#89C5CC"/>
</g>
<path opacity="0.5" fill-rule="evenodd" clip-rule="evenodd" d="M416.721 368.737C414.342 369.14 408.718 371.64 408.767 374.326C408.844 378.518 413.623 373.939 414.687 373.323C420.398 370.015 427.796 374.302 433.744 375.214C436.471 375.632 441.805 376.405 444.213 374.666C448.496 371.573 438.591 372.347 437.329 372.223C430.472 371.549 423.65 367.559 416.721 368.737Z" fill="#C1DEE2"/>
<g opacity="0.5">
<path fill-rule="evenodd" clip-rule="evenodd" d="M542.812 342.831C542.81 347.681 542.565 352.63 543.458 357.421C543.729 358.872 543.942 361.65 545.473 362.403C547.01 363.158 548.5 362.309 548.882 360.734C549.327 358.901 548.35 356.157 548.251 354.233C548.115 351.604 548.106 348.972 548.105 346.339C548.104 344.439 548.729 341.381 546.485 340.403C544.817 339.675 542.812 341.028 542.812 342.831Z" fill="#C1DEE2"/>
<path fill-rule="evenodd" clip-rule="evenodd" d="M619.472 335.162C603.406 336.775 587.109 337.11 570.985 337.951C563.532 338.339 554.525 337.843 547.503 340.728C546.199 341.264 541.529 344.246 545.32 345.46C546.502 345.839 547.703 344.566 548.673 344.139C550.289 343.43 552.16 343.21 553.883 342.933C568.534 340.58 583.859 340.99 598.661 339.891C602.454 339.609 606.248 339.319 610.033 338.946C612.737 338.68 618.421 336.731 620.916 337.728C625.18 339.432 625.081 350.499 625.165 354.305C625.209 356.274 623.298 363.34 627.096 362.624C630.136 362.05 629.035 354.71 628.799 352.702C628.177 347.438 627.116 334.387 619.472 335.162Z" fill="#C1DEE2"/>
<path fill-rule="evenodd" clip-rule="evenodd" d="M625.397 362.369C611.442 363.629 597.165 362.392 583.153 362.888C575.808 363.148 568.471 363.562 561.125 363.804C557.948 363.91 554.768 363.914 551.59 363.937C550.069 363.947 543.151 364.869 547.431 367.883C549.326 369.217 555.365 368.142 557.539 368.116C560.805 368.078 564.07 367.942 567.333 367.814C574.893 367.518 582.448 367.109 590.012 366.904C597.247 366.708 604.486 366.666 611.721 366.471C615.321 366.373 618.97 366.262 622.538 365.737C623.343 365.618 625.958 365.524 626.517 364.626C627.046 363.777 626.675 362.245 625.397 362.369Z" fill="#89C5CC"/>
<path fill-rule="evenodd" clip-rule="evenodd" d="M556.811 351.891C556.736 352.069 556.736 352.069 556.811 351.891V351.891ZM562.854 350.055C563.075 350.148 563.075 350.148 562.854 350.055V350.055ZM562.571 350.003C565.828 353.323 560.82 357.285 557.769 354.046C554.531 350.607 560.475 350.015 562.571 350.003ZM559.117 344.981C547.9 346.978 551.872 361.928 562.348 359.767C566.948 358.819 569.579 354.185 567.995 349.734C567.377 347.995 566.029 346.086 564.151 345.538C563.215 345.265 562.387 345.695 561.495 345.594C560.645 345.499 560.173 344.791 559.117 344.981Z" fill="#C1DEE2"/>
<path fill-rule="evenodd" clip-rule="evenodd" d="M602.048 349.189C595.284 349.211 588.518 349.498 581.755 349.626C579.68 349.665 574.348 348.737 574.34 352.008C574.331 355.502 580.27 354.211 582.247 354.164C588.956 354.004 595.681 353.71 602.364 353.071C604.051 352.91 609.894 353.188 609.888 350.893C609.882 348.461 603.411 349.189 602.048 349.189Z" fill="#C1DEE2"/>
<path fill-rule="evenodd" clip-rule="evenodd" d="M618.205 371.998C601.475 372.447 584.77 372.603 568.054 373.459C561.801 373.78 555.557 374.018 549.295 374.018C548.089 374.018 545.661 373.551 544.526 374.31C541.446 376.37 544.953 378.138 546.961 378.25C560.693 379.012 574.625 377.115 588.349 376.687C596.384 376.436 604.421 376.362 612.451 375.953C614.641 375.842 616.832 375.712 619.02 375.543C620.277 375.445 623.604 375.712 624.62 374.977C629.059 371.764 619.701 371.958 618.205 371.998Z" fill="#89C5CC"/>
<path fill-rule="evenodd" clip-rule="evenodd" d="M541.446 380.178C541.288 384.516 541.272 388.777 541.839 393.091C542.063 394.788 542.165 396.715 544.155 397.146C545.962 397.537 546.878 396.171 547.252 394.655C548.166 390.955 547.362 385.63 547.351 381.786C547.346 379.885 547.344 377.758 544.996 377.328C543.204 377 541.514 378.295 541.446 380.178Z" fill="#89C5CC"/>
<path fill-rule="evenodd" clip-rule="evenodd" d="M635.937 390.635C608.856 392.062 581.81 393.308 554.709 394.454C552.596 394.543 536.177 394.364 541.917 400.09C543.69 401.858 548.258 400.66 550.551 400.548C553.996 400.379 557.443 400.249 560.889 400.074C574.55 399.379 588.246 399.191 601.897 398.411C609.409 397.981 616.904 397.309 624.377 396.434C627.932 396.018 632.344 396.061 635.673 394.668C637.386 393.952 639.234 390.46 635.937 390.635Z" fill="#89C5CC"/>
<path fill-rule="evenodd" clip-rule="evenodd" d="M620.366 368.632C618.306 370.683 619.365 374.729 619.521 377.265C619.734 380.754 619.994 384.245 620.429 387.714C620.712 389.968 620.563 393.476 621.765 395.422C623.173 397.702 626.273 397.45 627.546 395.248C628.672 393.3 628.103 389.201 628.073 387.042C628.033 384.057 627.847 381.067 627.67 378.088C627.522 375.598 628.086 371.607 626.716 369.476C625.325 367.311 622.296 366.712 620.366 368.632Z" fill="#89C5CC"/>
<path fill-rule="evenodd" clip-rule="evenodd" d="M558.466 384.549C558.225 384.735 558.225 384.735 558.466 384.549V384.549ZM563.276 383.947C567.765 384.849 560.507 390.09 558.213 386.493C557.855 385.931 557.669 385.24 558.244 384.752C558.769 384.306 559.099 385.096 559.595 384.883C560.449 384.518 562.365 383.913 563.276 383.947ZM562.657 379.645C559.593 379.887 555.38 380.076 553.863 383.148C551.825 387.274 555.31 391.314 559.342 391.942C563.221 392.546 569.014 390.397 569.324 385.873C569.574 382.225 566.104 379.365 562.657 379.645Z" fill="#89C5CC"/>
<path fill-rule="evenodd" clip-rule="evenodd" d="M588.24 381.826C585.068 381.877 578.833 380.94 576.069 382.486C573.334 384.016 574.554 386.74 577.049 387.392C578.698 387.822 581.393 387.127 583.11 387.057C585.368 386.966 587.628 386.946 589.888 386.915C593.688 386.864 597.487 386.907 601.288 386.907C605.17 386.907 609.118 387.013 612.993 386.727C617.896 386.366 617.764 382.695 612.969 382.236C604.823 381.456 596.412 381.698 588.24 381.826Z" fill="#89C5CC"/>
<path fill-rule="evenodd" clip-rule="evenodd" d="M580.137 422.945C580.137 424.69 581.685 422.945 581.674 422.945C581.685 422.945 580.137 421.201 580.137 422.945Z" fill="#89C5CC"/>
<path fill-rule="evenodd" clip-rule="evenodd" d="M545.127 408.904C545.227 413.974 545.293 419.049 545.509 424.115C545.578 425.717 545.119 428.846 547.061 429.663C549.222 430.572 549.894 428.306 550.143 426.77C550.932 421.906 550.159 416.351 550.083 411.429C550.057 409.776 550.415 407.475 548.538 406.651C547.007 405.979 545.096 407.227 545.127 408.904Z" fill="#89C5CC"/>
<path fill-rule="evenodd" clip-rule="evenodd" d="M628.509 408.983C628.637 409.285 628.637 409.285 628.509 408.983V408.983ZM628.69 408.931C628.794 408.975 629.214 409.151 628.69 408.931V408.931ZM587.73 404.833C579.946 404.955 572.157 405.048 564.378 405.381C561.058 405.524 557.7 405.638 554.391 405.951C552.048 406.173 546.227 406.265 544.707 408.18C541.57 412.133 548.222 411.055 549.654 410.734C552.261 410.149 554.922 409.962 557.586 409.822C563.365 409.517 569.147 409.354 574.933 409.238C590.625 408.922 606.328 408.97 622.023 408.899C623.542 408.892 626.288 408.281 627.692 408.896C629.098 409.512 629.018 411.026 629.165 412.785C629.359 415.125 627.815 419.584 628.991 421.552C630.816 424.605 633.468 422.013 633.874 419.787C634.434 416.711 633.546 413.019 632.676 410.079C631.45 405.932 629.747 405.767 625.736 405.442C621.049 405.064 616.379 404.834 611.676 404.791C603.696 404.717 595.71 404.71 587.73 404.833Z" fill="#89C5CC"/>
<path fill-rule="evenodd" clip-rule="evenodd" d="M618.516 425.793C601.633 427.754 584.27 426.598 567.297 426.668C563.17 426.685 559.039 426.717 554.915 426.918C552.737 427.023 547.575 426.423 546.082 428.103C542.937 431.645 548.603 432.16 550.671 432.013C554.853 431.716 559.045 431.58 563.237 431.548C578.005 431.434 592.856 432.123 607.612 431.394C613.794 431.089 619.838 430.031 625.905 428.85C627.25 428.588 636.451 426.839 631.204 424.742C628.103 423.503 621.774 425.413 618.516 425.793Z" fill="#89C5CC"/>
<path fill-rule="evenodd" clip-rule="evenodd" d="M569.223 419.309C569.105 419.461 569.105 419.461 569.223 419.309V419.309ZM569.109 419.283C568.945 419.66 569.069 419.392 569.109 419.283V419.283ZM568.045 417.91C568.069 417.941 568.17 418.07 568.045 417.91V417.91ZM568.003 417.899C568.41 418.385 568.684 418.926 568.824 419.523C565.326 420.471 563.979 417.641 568.003 417.899ZM567.782 417.767C567.783 417.768 568.275 417.975 567.782 417.767V417.767ZM562.036 413.551C559.772 416.37 557.903 419.656 560.726 422.876C563.25 425.755 568.327 426.127 571.53 424.204C574.829 422.224 574.544 418.054 572.243 415.333C570.761 413.58 569.56 413.629 567.41 413.343C565.946 413.148 563.278 412.01 562.036 413.551Z" fill="#89C5CC"/>
<path fill-rule="evenodd" clip-rule="evenodd" d="M585.438 418.769C585.438 422.523 601.648 420.907 604.532 420.903C606.947 420.899 621.554 422.232 620.505 418.369C619.644 415.194 605.256 416.772 602.192 416.767C599.544 416.764 585.438 414.945 585.438 418.769Z" fill="#89C5CC"/>
</g>
<g opacity="0.5">
<path fill-rule="evenodd" clip-rule="evenodd" d="M373.82 453.942C381.938 455.121 390.382 458.938 390.311 468.388C390.252 476.333 383.588 484.788 375.032 484.313C367.332 483.887 360.081 475.466 359.117 468.25C358.618 464.511 359.552 460.486 361.751 457.41C364.633 453.381 369.205 453.387 373.82 453.942ZM369.985 448.806C364.114 448.838 359.818 450.962 356.184 455.445C354.881 457.052 353.365 458.783 352.373 460.604C351.446 462.305 351.609 466.63 354.789 464.603C354.006 472.977 358.9 481.104 365.935 485.395C373.583 490.059 382.227 489.15 388.591 482.612C394.418 476.627 396.468 466.519 392.206 459.118C387.946 451.72 378.075 448.726 369.985 448.806Z" fill="#89C5CC"/>
<path fill-rule="evenodd" clip-rule="evenodd" d="M387.591 446.561C383.832 449.317 380.4 452.944 377.549 456.624C374.763 460.221 372.92 464.712 369.573 467.848C367.883 466.007 365.902 461.034 362.53 463.007C359.732 464.644 361.534 467.459 362.896 469.308C366.416 474.081 370.324 476.002 374.837 471.286C378.936 467.003 381.264 461.29 385.097 456.761C386.778 454.773 389.375 452.801 390.714 450.607C391.927 448.618 390.426 444.478 387.591 446.561Z" fill="#89C5CC"/>
</g>
<g opacity="0.5">
<path fill-rule="evenodd" clip-rule="evenodd" d="M529.651 147.789C529.657 148.165 529.662 148.518 529.67 148.843C529.846 155.935 529.744 163.39 529.168 170.465C528.969 172.908 527.192 176.004 525.165 172.637C524.273 171.156 524.398 168.116 524.49 165.879C524.515 165.279 524.537 164.737 524.537 164.299C524.535 161.803 524.666 159.282 524.797 156.754C525.054 151.811 525.313 146.843 524.581 141.989C524.566 141.891 524.552 141.796 524.539 141.706C524.221 139.571 524.199 139.423 521.852 139.472C520.873 139.492 519.895 139.519 518.916 139.545C517.954 139.571 516.991 139.597 516.029 139.617C515.073 139.638 514.117 139.656 513.161 139.674C510.164 139.732 507.166 139.79 504.17 139.899C503.67 139.918 502.737 140.035 501.56 140.182C499.206 140.478 495.875 140.895 493.072 140.893C493.073 140.905 493.074 140.917 493.075 140.929C493.076 140.951 493.078 140.973 493.079 140.995C493.11 142.542 492.711 144.269 492.311 146.005C491.976 147.458 491.639 148.917 491.553 150.28C491.347 153.525 491.345 156.803 491.343 160.082C491.34 164.074 491.337 168.067 490.967 171.997C490.949 172.189 490.938 172.392 490.927 172.597C490.926 172.624 490.925 172.651 490.923 172.678C491.05 172.659 491.173 172.645 491.292 172.638C493.312 172.51 495.349 172.498 497.383 172.487C498.505 172.481 499.626 172.474 500.742 172.448C502.747 172.402 504.777 172.404 506.814 172.406C511.312 172.411 515.85 172.416 520.25 171.898C521.55 171.729 522.004 173.396 521.421 174.26C520.899 175.034 519.463 175.159 518.41 175.251C518.143 175.274 517.9 175.295 517.704 175.325C514.866 175.745 511.99 175.891 509.127 176.018C506.12 176.152 503.11 176.251 500.101 176.335C499.385 176.355 498.429 176.451 497.369 176.558C494.571 176.841 491.049 177.197 489.3 176.406C487.421 175.556 487.465 174.612 488.232 173.881C487.895 173.141 487.842 172.06 487.801 171.215C487.785 170.892 487.771 170.604 487.744 170.382C487.326 167.016 487.075 163.693 487.069 160.298C487.057 153.649 487.071 146.743 488.91 140.306C488.173 139.984 487.729 139.508 487.731 138.823C487.739 135.37 498.487 135.545 503.596 135.629C504.51 135.644 505.243 135.656 505.702 135.644C509.424 135.546 513.146 135.534 516.869 135.554C517.655 135.558 518.531 135.507 519.438 135.453C521.367 135.34 523.439 135.218 525.105 135.605C529.483 136.622 529.588 143.593 529.651 147.789Z" fill="#89C5CC"/>
<path fill-rule="evenodd" clip-rule="evenodd" d="M557.03 136.362C561.094 136.147 565.161 136.098 569.23 136.083C573.539 136.061 577.853 136.138 582.16 136.271L582.259 136.274C584.168 136.331 594.774 136.65 589.901 139.293C589.617 139.447 589.297 139.576 588.948 139.683C589.154 140.907 589.179 142.17 589.146 142.779C589.02 145.088 588.937 147.399 588.854 149.71L588.854 149.71C588.798 151.276 588.742 152.842 588.672 154.407C588.481 158.732 588.298 163.057 588.149 167.384C588.131 167.916 588.159 168.61 588.19 169.384C588.294 171.944 588.432 175.374 587.043 176.642C585.823 177.756 584.989 177.533 584.427 176.777C580.936 177.79 573.766 177.461 570.161 177.295C569.292 177.255 568.63 177.225 568.277 177.225C567.645 177.225 566.471 177.304 564.987 177.403C558.814 177.818 547.29 178.592 547.266 175.549C547.264 175.256 547.359 174.993 547.538 174.758C547.049 174.259 546.609 173.527 546.326 172.612C545.312 169.33 545.216 165.788 545.141 162.384C545.035 157.577 545.033 152.765 545.032 147.954V147.954C545.032 145.484 545.031 143.013 545.016 140.544C544.356 139.658 544.748 138.644 545.572 137.937C547.325 136.432 551.676 136.414 554.824 136.401C555.671 136.397 556.431 136.394 557.03 136.362ZM550.417 173.423C554.334 172.587 560.934 172.856 564.471 173C565.397 173.038 566.113 173.067 566.515 173.066C570.127 173.052 573.74 173.102 577.349 173.246C577.722 173.261 578.276 173.247 578.928 173.231C580.239 173.198 581.947 173.155 583.398 173.315C583.378 173.119 583.365 172.939 583.357 172.784C583.195 169.571 583.312 166.331 583.429 163.109V163.109C583.454 162.424 583.478 161.74 583.501 161.058C583.578 158.648 583.681 156.24 583.784 153.832L583.784 153.831C583.848 152.315 583.913 150.8 583.972 149.284C583.997 148.618 583.959 147.714 583.916 146.698V146.698C583.829 144.629 583.721 142.093 584.092 140.145C582.756 140.119 581.387 140.025 580.131 139.938C578.921 139.854 577.816 139.778 576.948 139.777C575.846 139.777 574.745 139.774 573.643 139.771C570.592 139.761 567.541 139.752 564.489 139.812C564.2 139.818 563.911 139.824 563.622 139.829L563.621 139.829L563.62 139.829C559.418 139.91 555.181 139.992 551.015 140.546C550.77 140.578 550.477 140.641 550.153 140.717C550.609 142.626 550.385 145.317 550.189 147.673C550.094 148.818 550.006 149.883 550.005 150.743C549.999 156.085 550.14 161.406 550.281 166.723V166.723V166.723L550.281 166.723C550.334 168.734 550.387 170.744 550.433 172.754C550.438 172.994 550.432 173.217 550.417 173.423Z" fill="#89C5CC"/>
<path fill-rule="evenodd" clip-rule="evenodd" d="M505.833 176.18C503.162 177.741 504.602 183.982 505.528 186.14C507.049 189.69 510.135 192.467 513.465 194.309C520.197 198.033 529.9 197.044 534.99 203.5C535.043 203.567 536.803 205.309 537.203 203.053C537.532 201.201 534.247 198.374 532.974 197.446C529.354 194.807 524.712 193.956 520.524 192.637C516.059 191.231 511.159 188.639 509.287 184.036C508.624 182.405 509.887 173.8 505.833 176.18Z" fill="#C1DEE2"/>
<path fill-rule="evenodd" clip-rule="evenodd" d="M566.889 179.181C564.441 179.856 566.06 183.223 566.056 184.91C566.051 187.013 565.379 189.215 564.082 190.894C560.794 195.152 554.356 195.79 549.53 197.01C546.025 197.897 537.639 199.799 537.311 204.539C536.945 209.832 544.348 203.391 544.973 203.127C551.893 200.588 560.844 200.098 566.185 194.511C568.389 192.205 569.692 189.127 569.899 185.95C570.016 184.162 570.036 178.321 566.889 179.181Z" fill="#C1DEE2"/>
<path fill-rule="evenodd" clip-rule="evenodd" d="M516.317 226.132C516.26 216.338 525.633 210.414 534.108 208.186C544.295 205.502 553.784 212.64 554.985 222.908C556.252 233.744 548.085 242.467 537.315 242.946C527.84 243.366 516.378 236.583 516.317 226.132ZM539.073 212.895C539.623 213.644 540.121 214.839 539.01 215.49C537.943 216.112 537.409 215.364 536.873 214.611C536.534 214.136 536.193 213.658 535.715 213.523C534.477 213.175 532.487 214.477 531.455 215.236C531.037 215.545 530.441 216.208 529.744 216.984C527.527 219.453 524.29 223.059 522.501 219.956C515.365 232.279 533.155 241.5 543.272 236.837C554.382 231.716 552.219 212.992 539.073 212.895Z" fill="#89C5CC"/>
<path fill-rule="evenodd" clip-rule="evenodd" d="M529.749 222.853C529.749 225.101 533.298 225.101 533.298 222.853C533.298 220.631 529.749 220.536 529.749 222.853Z" fill="#89C5CC"/>
<path fill-rule="evenodd" clip-rule="evenodd" d="M535.994 222.432C535.994 225.185 540.345 225.185 540.345 222.432C540.345 219.709 535.994 219.593 535.994 222.432Z" fill="#89C5CC"/>
<path fill-rule="evenodd" clip-rule="evenodd" d="M531.525 228.848C527.967 230.941 538.141 235.099 538.543 230.85C538.717 229.016 536.941 229.511 535.758 229.376C534.625 229.247 532.599 228.223 531.525 228.848Z" fill="#89C5CC"/>
<path fill-rule="evenodd" clip-rule="evenodd" d="M529.982 243.695C530.136 249.04 530.062 254.382 531.076 259.652C531.268 260.653 531.402 264.284 532.193 265.028C534.139 266.857 534.171 263.351 534.247 262.008C534.517 257.195 534.012 252.233 533.9 247.41C533.876 246.372 534.151 244.222 533.661 243.217C532.884 241.622 529.906 241.149 529.982 243.695Z" fill="#C1DEE2"/>
<path fill-rule="evenodd" clip-rule="evenodd" d="M526.176 239.361C518.377 248.115 507.637 247.47 496.816 248.237C491.099 248.642 485.319 249.474 480.718 253.171C478.579 254.892 476.734 257.046 475.494 259.502C474.952 260.576 472.382 266.77 476.242 265.3C477.611 264.779 478.959 260.683 479.844 259.471C481.531 257.163 483.689 255.259 486.277 254.02C491.271 251.631 497.233 251.672 502.647 251.369C508.307 251.052 514.381 250.756 519.584 248.295C522.031 247.137 524.327 245.693 526.296 243.833C527 243.168 528.509 242.038 528.622 241.021C528.75 239.858 527.633 237.73 526.176 239.361Z" fill="#C1DEE2"/>
<path fill-rule="evenodd" clip-rule="evenodd" d="M486.802 266.23C479.476 266.475 472.159 266.771 464.842 267.234C463.343 267.329 458.344 267.026 459.617 270.099C460.638 272.561 466.734 270.932 468.751 270.813C476.375 270.36 484.03 270.203 491.637 269.517C493.346 269.363 501.071 269.425 497.882 266.396C496.364 264.954 488.899 266.158 486.802 266.23Z" fill="#89C5CC"/>
<path fill-rule="evenodd" clip-rule="evenodd" d="M454.965 269.764C452.656 272.797 453.717 280.168 453.892 283.815C454.061 287.348 453.374 293.809 457.986 294.356C456.522 294.164 459.098 294.445 459.517 294.468C460.454 294.518 461.395 294.534 462.332 294.545C464.499 294.568 466.666 294.539 468.832 294.496C473.738 294.398 478.657 294.255 483.557 293.984C485.617 293.87 496.791 293.965 497.233 291.825C497.798 289.091 487.085 290.638 485.167 290.725C480.496 290.94 475.818 290.985 471.144 291.046C468.827 291.076 466.507 291.099 464.19 291.054C463.234 291.035 459.445 291.428 458.863 290.79C458.367 290.246 458.754 285.251 458.744 284.487C458.71 281.995 458.712 279.498 458.801 277.008C458.861 275.332 459.767 272.143 459.029 270.568C458.31 269.037 456.216 268.514 454.965 269.764Z" fill="#89C5CC"/>
<path fill-rule="evenodd" clip-rule="evenodd" d="M492.691 269.905C492.824 275.454 492.866 281.115 494.176 286.541C494.613 288.347 495.224 292.071 497.038 293.006C498.942 293.988 500.586 292.587 500.711 290.7C500.867 288.328 499.597 285.214 499.337 282.78C499.033 279.94 498.856 277.098 498.751 274.244C498.673 272.098 499.325 268.881 497.279 267.497C495.441 266.254 492.631 267.506 492.691 269.905Z" fill="#89C5CC"/>
<path fill-rule="evenodd" clip-rule="evenodd" d="M507.271 268.551C504.992 270.82 506.011 278.007 506.296 280.923C506.504 283.059 508.842 293.567 512.345 288.088C513.895 285.664 511.926 279.254 511.94 276.428C511.949 274.628 512.586 272.352 512.279 270.623C511.872 268.337 509.338 266.486 507.271 268.551Z" fill="#89C5CC"/>
<path fill-rule="evenodd" clip-rule="evenodd" d="M523.048 266.677C529.892 265.971 536.744 265.441 543.626 265.376C543.957 265.373 544.304 265.369 544.665 265.364C549.382 265.304 556.47 265.214 559.644 268.756C561.373 270.686 562.157 273.668 562.839 276.269C562.967 276.754 563.091 277.225 563.217 277.674C563.324 278.058 563.464 278.496 563.615 278.969C564.328 281.201 565.293 284.221 564.314 286.091C563.778 287.117 562.915 287.991 561.604 287.628C561.298 287.543 561.058 287.434 560.87 287.306C561.372 287.85 561.594 288.623 561.268 289.381C560.638 290.844 558.647 290.875 557.078 290.9C556.697 290.906 556.342 290.911 556.037 290.937C550.811 291.372 545.562 291.663 540.318 291.709C537.821 291.731 535.324 291.71 532.827 291.69C530.257 291.669 527.687 291.648 525.117 291.673C523.251 291.692 521.352 291.869 519.451 292.046C517.052 292.27 514.651 292.494 512.318 292.399C510.572 292.327 508.708 291.755 509.15 289.499C509.511 287.657 511.245 287.497 512.799 287.352C512.934 287.34 513.068 287.327 513.199 287.314C518.146 286.81 523.095 286.632 528.067 286.65C538.512 286.686 548.949 286.632 559.394 286.578C559.823 286.613 560.227 286.777 560.56 287.027C560.184 286.571 560.192 285.963 560.199 285.316C560.203 285.023 560.207 284.722 560.175 284.423C560.111 283.823 560.052 283.225 559.994 282.629C559.801 280.657 559.609 278.7 559.233 276.716C559.176 276.417 559.122 276.087 559.064 275.739C558.722 273.679 558.269 270.951 556.632 269.839C554.985 268.722 551.757 268.775 549.241 268.817C548.562 268.828 547.935 268.839 547.405 268.825C540.691 268.652 533.939 269.129 527.256 269.736C526.743 269.783 526.229 269.828 525.714 269.872C523.172 270.094 520.616 270.316 518.11 270.771C517.652 270.855 516.951 271.099 516.148 271.38C514.01 272.125 511.143 273.126 510.169 272.024C506.942 268.374 521.123 266.876 523.048 266.677Z" fill="#89C5CC"/>
<path fill-rule="evenodd" clip-rule="evenodd" d="M595.863 258.368C596.16 258.751 596.16 258.751 595.863 258.368V258.368ZM549.547 235.758C545.39 238.201 553.084 245.37 555.044 246.479C559.454 248.974 565.514 249.35 570.438 250.052C576.671 250.94 583.454 251.267 589.443 253.31C591.995 254.18 593.617 255.538 595.288 257.625C596.134 258.683 598.173 263.241 600.03 262.161C603.768 259.989 593.695 250.87 591.476 249.889C586.43 247.66 580.466 247.036 575.071 246.171C570.055 245.366 564.93 244.767 560.038 243.348C557.347 242.568 555.435 241.309 553.885 238.9C552.918 237.399 552.125 234.249 549.547 235.758Z" fill="#C1DEE2"/>
<path fill-rule="evenodd" clip-rule="evenodd" d="M613.27 263.764C608.478 263.87 603.695 264.239 598.912 264.607C596.229 264.814 593.547 265.021 590.863 265.181C590.024 265.231 589.184 265.277 588.343 265.322C585.979 265.449 583.611 265.577 581.259 265.814C580.901 265.85 580.487 265.884 580.036 265.921C578.038 266.086 575.313 266.309 573.572 267.038C571.976 265.831 569.512 266.858 569.474 269.009C569.408 272.929 569.444 276.78 569.922 280.675C570.033 281.58 570.605 286.158 571.848 288.542C571.406 290.792 573.324 291.423 575.11 291.596C582.027 292.263 589.28 291.745 596.435 291.234C600.075 290.974 603.689 290.716 607.22 290.616C608.394 290.583 609.584 290.57 610.78 290.556C614.684 290.513 618.664 290.468 622.444 289.73C622.596 289.7 622.759 289.671 622.93 289.64C624.424 289.372 626.485 289.003 626.642 287.358C626.736 286.371 626.179 285.467 625.247 285.341C625.311 284.518 625.208 283.621 625.132 282.961L625.132 282.961C625.114 282.807 625.098 282.667 625.086 282.543C624.859 280.255 624.289 277.983 623.727 275.74C623.6 275.235 623.474 274.732 623.353 274.231C623.218 273.676 623.093 273.016 622.958 272.304C622.483 269.791 621.886 266.633 620.297 265.167C618.632 263.63 615.92 263.698 613.748 263.752C613.585 263.756 613.426 263.76 613.27 263.764ZM621.703 285.586C621.135 284.099 620.969 282.087 620.811 280.175V280.175C620.712 278.975 620.616 277.814 620.426 276.847C620.283 276.121 620.166 275.355 620.047 274.577V274.577C619.758 272.688 619.458 270.724 618.749 269.068C617.799 266.851 616.954 266.935 614.954 267.136C614.582 267.173 614.17 267.214 613.71 267.246C611.671 267.384 609.635 267.56 607.599 267.737C606.622 267.821 605.645 267.906 604.668 267.986C600.487 268.33 596.303 268.594 592.12 268.858C589.675 269.013 587.231 269.167 584.786 269.337C582.868 269.471 580.996 269.835 579.131 270.198C577.655 270.486 576.183 270.773 574.696 270.943C574.675 271.451 574.632 271.961 574.592 272.447C574.536 273.108 574.485 273.725 574.496 274.23C574.544 276.469 574.742 278.694 574.94 280.922L574.94 280.923C574.97 281.265 575.001 281.608 575.031 281.951C575.067 282.362 575.155 282.89 575.253 283.475C575.405 284.381 575.579 285.424 575.618 286.386C575.799 286.384 575.979 286.385 576.156 286.386C576.385 286.387 576.61 286.387 576.825 286.384C582.093 286.292 587.357 286.132 592.622 285.929C593.294 285.904 593.966 285.878 594.638 285.851C599.335 285.669 604.032 285.486 608.733 285.432C610.601 285.411 612.493 285.469 614.391 285.528C616.832 285.603 619.283 285.679 621.703 285.586Z" fill="#89C5CC"/>
</g>
<path fill-rule="evenodd" clip-rule="evenodd" d="M117.29 387.605L150.855 503.27L166.643 590.113H182.489L166.671 387.605H117.29Z" fill="#997659"/>
<path fill-rule="evenodd" clip-rule="evenodd" d="M102.205 387.605C104.547 447.692 103.623 480.465 103.099 485.925C102.575 491.384 99.599 527.946 79.3206 591.945H95.8018C122.657 530.549 132.032 493.987 135.112 485.925C138.193 477.863 147.29 445.089 160.571 387.605H102.205Z" fill="#B28B67"/>
<path fill-rule="evenodd" clip-rule="evenodd" d="M116.569 387.605C125.3 427.406 140.401 490.937 161.871 578.2H185.048C186.76 488.633 179.478 429.683 166.867 387.605H116.569Z" fill="#DF8921"/>
<path fill-rule="evenodd" clip-rule="evenodd" d="M102.088 387.605C104.382 447.692 98.437 506.889 80.0232 579.136H104.751C131.656 518.656 150.94 459.75 164.119 387.605H102.088Z" fill="#F79824"/>
<path fill-rule="evenodd" clip-rule="evenodd" d="M76.9713 603.857L77.8032 590.445C77.8429 589.805 78.4659 589.367 79.0941 589.497C87.0274 591.13 97.8871 587.364 97.8871 587.364C108.797 595.091 124.474 598.681 130.222 599.795C131.404 600.024 132.154 601.215 131.825 602.372L130.625 606.606H97.8871H78.7901L76.9713 603.857Z" fill="#25283D"/>
<path fill-rule="evenodd" clip-rule="evenodd" d="M163.106 603.857L163.938 590.445C163.977 589.805 164.6 589.367 165.229 589.497C173.162 591.13 184.021 587.364 184.021 587.364C194.931 595.091 210.608 598.681 216.357 599.795C217.538 600.024 218.288 601.215 217.96 602.372L216.759 606.606H184.021H164.924L163.106 603.857Z" fill="#25283D"/>
<path fill-rule="evenodd" clip-rule="evenodd" d="M151.134 250.38C157.068 253.957 162.898 255.685 165.635 254.979C172.498 253.211 173.129 228.105 167.819 218.208C162.509 208.31 135.211 203.997 133.835 223.606C133.358 230.412 136.216 236.486 140.438 241.442L132.867 276.73H154.859L151.134 250.38Z" fill="#B28B67"/>
<path fill-rule="evenodd" clip-rule="evenodd" d="M159.132 207.428C156.127 206.512 151.765 206.201 149.93 206.411C150.974 203.91 151.388 201.124 151.05 198.411C150.722 195.774 149.544 193.53 148.455 191.178C147.952 190.093 147.383 189.015 146.535 188.186C145.67 187.341 144.576 186.783 143.429 186.517C142.255 186.245 141.027 186.267 139.851 186.515C139.331 186.624 138.864 186.862 138.354 186.994C137.831 187.129 137.578 186.802 137.199 186.474C136.285 185.682 134.945 185.291 133.789 185.151C132.492 184.994 131.146 185.19 129.909 185.616C128.705 186.032 127.548 186.706 126.677 187.688C126.289 188.125 125.938 188.622 125.709 189.172C125.615 189.397 125.6 189.531 125.375 189.613C125.167 189.69 124.923 189.692 124.709 189.765C122.632 190.468 120.857 192.072 119.891 194.132C119.327 195.334 119.06 197.449 119.133 199.821C119.206 202.192 121.347 208.379 123.35 210.636C125.137 212.651 127.765 213.98 130.301 214.562C128.617 216.486 127.497 218.89 126.669 221.335C125.769 223.991 125.212 226.75 125.006 229.562C124.811 232.234 124.793 235.059 125.419 237.673C126.005 240.118 127.258 242.124 129.349 243.396C130.307 243.979 131.338 244.417 132.375 244.817C133.397 245.211 134.422 245.595 135.492 245.816C137.517 246.235 139.852 246.163 141.412 244.551C141.974 243.969 142.593 243.239 143.003 242.529C143.151 242.273 143.24 242.106 143.06 241.857C142.846 241.558 142.498 241.329 142.222 241.095C140.65 239.762 139.676 237.982 139.43 235.866C139.181 233.72 139.758 230.95 141.845 230.013C144.421 228.857 147.257 230.184 149.547 231.421C150.52 227.987 152.518 224.895 155.65 223.319C159.115 221.577 163.092 221.373 166.653 219.877C167.581 219.488 168.526 219.046 169.21 218.252C169.495 217.92 169.83 217.489 169.944 217.051C170.094 216.474 169.722 215.991 169.435 215.541C167.912 213.159 162.137 208.345 159.132 207.428Z" fill="#25283D"/>
<path fill-rule="evenodd" clip-rule="evenodd" d="M205.575 282.86L173.77 300.28L185.515 312.886L208.626 291.726C220.8 288.37 226.368 285.916 225.328 284.362C224.452 283.052 223.038 283.098 221.737 283.14C220.722 283.172 219.776 283.203 219.203 282.588C217.897 281.186 220.39 276.281 222.955 271.728C225.521 267.175 222.778 267.571 221.209 268.226C216.076 271.701 210.864 276.579 205.575 282.86ZM237.554 307.302L223.583 314.977L224.379 328.997C224.379 328.997 233.427 322.466 241.212 320.296C251.138 317.528 255.153 315.415 260.004 309.235C262.599 305.928 264.801 299.281 262.331 297.116C261.384 296.285 257.853 298.247 254.251 300.249C251.505 301.775 248.718 303.323 247.001 303.677C244.69 304.153 244.96 301.157 245.176 298.762C245.332 297.044 245.459 295.636 244.584 296.043C240.494 296.113 237.554 307.302 237.554 307.302Z" fill="#997659"/>
<path fill-rule="evenodd" clip-rule="evenodd" d="M158.281 296.399C169.421 296.281 184.277 293.928 200.128 283.867L206.353 297.749C195.419 308.6 180.045 317.515 166.603 317.138C156.009 316.84 150.595 304.026 158.281 296.399Z" fill="#005DC7"/>
<path fill-rule="evenodd" clip-rule="evenodd" d="M128.235 391.507C117.644 390.126 107.912 388.858 102.145 389.993C95.6748 368.979 101.048 355.748 106.008 343.534C108.997 336.173 111.837 329.181 111.843 321.077C111.86 297.477 130.809 261.152 133.597 261.152H134.398H156.493H159.022C160.159 275.756 165.011 291.568 169.893 307.481C171.034 311.198 172.176 314.919 173.272 318.633C191.75 322.827 232.779 308.227 232.779 308.227C232.779 308.227 243.137 329.655 242.356 338.781C218.474 351.255 198.005 356.817 181.142 357.184C181.678 367.191 180.46 376.712 176.369 385.411C170.887 397.068 148.056 394.091 128.235 391.507Z" fill="#0077FF"/>
<path fill-rule="evenodd" clip-rule="evenodd" d="M640.088 487.484C648.925 487.484 656.088 494.648 656.088 503.484V585.108C656.088 593.945 648.925 601.108 640.088 601.108H537.388C528.552 601.108 521.388 593.945 521.388 585.108V503.484C521.388 494.648 528.552 487.484 537.388 487.484H640.088ZM626.431 513.141C628.64 513.141 630.431 514.932 630.431 517.141V571.451C630.431 573.66 628.64 575.451 626.431 575.451H551.045C548.836 575.451 547.045 573.66 547.045 571.451V517.141C547.045 514.932 548.836 513.141 551.045 513.141H626.431Z" fill="#C5CFD6"/>
<path fill-rule="evenodd" clip-rule="evenodd" d="M430.527 596.527C448.593 574.466 460.817 558.11 467.199 547.461C478.126 529.227 487.069 513.002 489.891 506.804C496.622 492.025 474.398 485.104 469.368 491.998C461.755 502.432 445.497 535.264 420.593 590.495L430.527 596.527Z" fill="#B28B67"/>
<path fill-rule="evenodd" clip-rule="evenodd" d="M467.547 590.113L501.169 505.478C508.361 490.05 473.633 479.908 468.348 487.088C456.35 503.389 427.833 567.694 424.258 572.55L467.547 590.113Z" fill="#005DC7"/>
<path fill-rule="evenodd" clip-rule="evenodd" d="M557.095 573.139C550.545 563.586 526.723 531.444 513.747 518.145C510.019 514.324 506.38 510.656 502.939 507.238C492.711 497.078 472.343 514.154 482.553 523.408C507.978 546.454 545.074 577.565 548.174 580.339C552.518 584.227 561.211 579.144 557.095 573.139Z" fill="#B28B67"/>
<path fill-rule="evenodd" clip-rule="evenodd" d="M552.743 569.354C553.44 568.413 554.781 568.187 555.675 568.944C557.164 570.204 559.212 572.069 559.966 573.375C561.205 575.521 562.868 580.052 562.868 580.052C560.378 581.49 518.11 605.894 518.11 605.894C518.11 605.894 513.035 601.133 516.528 598.503C520.022 595.873 522.294 594.067 522.294 594.067L537.692 572.852C538.023 572.396 538.665 572.303 539.111 572.647L542.253 575.066C542.253 575.066 546.67 574.68 548.846 573.424C550.126 572.685 551.68 570.789 552.743 569.354Z" fill="#25283D"/>
<path fill-rule="evenodd" clip-rule="evenodd" d="M435.591 592.279C436.665 591.812 437.939 592.288 438.334 593.39C438.994 595.226 439.835 597.865 439.835 599.373C439.835 601.851 439.01 606.606 439.01 606.606C436.134 606.606 387.327 606.606 387.327 606.606C387.327 606.606 385.313 599.946 389.653 599.415C393.994 598.884 396.864 598.456 396.864 598.456L420.807 587.782C421.322 587.553 421.924 587.794 422.139 588.315L423.65 591.981C423.65 591.981 427.668 593.855 430.18 593.855C431.659 593.855 433.953 592.991 435.591 592.279Z" fill="#25283D"/>
<path fill-rule="evenodd" clip-rule="evenodd" d="M513.268 509.705C513.268 509.705 555.185 502.876 569.422 500.366C596.474 495.596 604.363 481.038 599.699 449.276L549.855 449.276C539.961 452.133 467.172 484.618 467.172 484.618C458.441 488.952 460.067 501.731 461.663 505.941C461.76 506.198 505.818 581.602 505.818 581.602L546.593 555.627L513.191 512.766C513.191 512.766 511.868 510.101 513.268 509.705Z" fill="#0077FF"/>
<path fill-rule="evenodd" clip-rule="evenodd" d="M570.929 346.594C564.995 350.171 559.165 351.899 556.428 351.193C549.566 349.425 548.935 324.319 554.245 314.422C559.555 304.524 586.852 300.211 588.228 319.82C588.706 326.626 585.848 332.7 581.625 337.656L589.196 372.944H567.205L570.929 346.594Z" fill="#B28B67"/>
<path fill-rule="evenodd" clip-rule="evenodd" d="M583.315 342.071C586.075 329.791 593.939 321.42 592.738 315.932C591.537 310.443 586.336 309.105 586.336 309.105C586.336 309.105 583.647 298.224 568.986 299.849C554.326 301.474 545.378 307.562 549.242 320.959C552.794 320.959 557.082 319.674 563.012 321.875C565.834 322.923 567.049 328.372 567.049 328.372H569.728C569.728 328.372 573.629 321.905 577.421 323.619C581.213 325.333 579.145 331.946 579.145 331.946L580.465 342.071H583.315Z" fill="#25283D"/>
<path fill-rule="evenodd" clip-rule="evenodd" d="M492.36 453.246L521.589 431.782L528.05 447.755L499.106 459.757C490.92 469.373 486.342 473.382 485.373 471.783C484.556 470.435 485.195 469.173 485.783 468.011C486.241 467.106 486.669 466.261 486.354 465.482C485.635 463.705 480.136 463.892 474.926 464.293C469.715 464.694 471.234 462.375 472.49 461.23C477.809 458.047 484.432 455.385 492.36 453.246ZM645.644 491.065C642.958 485.618 633.814 432.523 633.814 432.523L614.665 432.598C614.665 432.598 632.4 489.851 633.814 493.354C635.65 497.905 632.531 504.516 630.416 509C630.089 509.693 629.786 510.336 629.529 510.912C632.463 512.225 633.873 510.638 635.359 508.965C637.038 507.074 638.814 505.075 642.996 507.02C644.611 507.771 646.14 508.66 647.633 509.528C652.792 512.527 657.531 515.282 663.978 511.304C665 510.673 666.121 508.298 663.414 506.443C656.672 501.82 646.957 493.729 645.644 491.065Z" fill="#B28B67"/>
<path fill-rule="evenodd" clip-rule="evenodd" d="M579.396 352.173L571.473 350.814C542.074 376.21 529.999 424.999 493.963 450.845L502.637 461.596C565.152 453.856 580.647 394.344 579.396 352.173Z" fill="#DF8921"/>
<path fill-rule="evenodd" clip-rule="evenodd" d="M613.937 451.748C613.937 451.748 566.281 451.748 543.828 451.748C540.624 451.748 541.228 447.122 541.691 444.787C547.036 417.847 567.9 388.807 567.9 350.458L588.123 347.287C604.849 374.189 610.634 407.31 613.937 451.748Z" fill="#DDE3E9"/>
<path fill-rule="evenodd" clip-rule="evenodd" d="M621.82 470.99C624.971 478.558 628.061 485.161 630.972 490.233H646.008C647.626 437.928 627.824 397.681 611.251 373.414C614.93 373.151 618.252 371.611 620.351 367.823C627.743 354.485 625.073 347.142 617.174 344.729C612.831 343.401 608.745 344.307 603.855 345.392C599.854 346.279 595.313 347.286 589.651 347.287C589.649 347.287 589.647 347.287 589.645 347.287C589.097 347.287 588.597 347.324 588.144 347.394L581.434 347.777C581.434 347.777 554.188 440.115 566.405 470.99H621.82Z" fill="#F79824"/>
<path fill-rule="evenodd" clip-rule="evenodd" d="M621.82 470.99C617.686 461.061 613.447 449.472 609.367 437.503C607.848 450.684 605.319 463.922 601.109 470.99H621.82Z" fill="black" fill-opacity="0.1"/>
</svg>
