<svg width="613" height="698" viewBox="0 0 613 698" fill="none" xmlns="http://www.w3.org/2000/svg">
<path d="M528.778 -82.077C570.092 -44.5535 581.896 43.706 593.246 115.582C604.596 187.458 615.492 243.479 611.86 296.857C608.228 350.764 590.068 401.5 557.38 430.568C524.692 459.107 477.022 465.977 439.34 510.9C401.204 555.822 372.602 638.797 325.84 675.263C279.532 711.201 214.61 701.16 169.21 660.994C123.81 621.357 97.4781 552.123 65.2441 486.589C33.0101 421.583 -5.57993 360.806 -3.76393 301.086C-1.49393 240.836 40.7281 182.701 67.9681 107.126C95.2081 31.5505 107.012 -60.937 150.596 -97.4035C194.18 -133.341 269.09 -113.259 342.184 -109.559C415.278 -105.86 487.01 -119.6 528.778 -82.077Z" fill="#0077FF" fill-opacity="0.53"/>
</svg>
