<svg width="384" height="285" viewBox="0 0 384 285" fill="none" xmlns="http://www.w3.org/2000/svg">
<path d="M286.426 21.8901C312.116 33.3921 335.99 48.9411 354.155 70.0281C372.32 91.1151 384.776 117.74 383.219 144.365C381.662 170.99 365.833 197.615 343.256 219.128C320.42 240.854 290.578 257.468 255.286 272.378C219.734 287.501 178.733 300.92 147.593 291.335C116.453 281.75 95.1745 248.948 66.889 221.684C38.6035 194.207 3.05198 172.268 0.45698 147.347C-2.13802 122.213 28.2235 94.3101 52.6165 70.2411C77.269 45.9591 95.953 25.5111 120.605 13.5831C145.258 1.86805 175.879 -1.11395 204.943 1.01605C233.747 3.14605 260.995 10.3881 286.426 21.8901Z" fill="#F79824"/>
</svg>
