<svg width="591" height="793" viewBox="0 0 591 793" fill="none" xmlns="http://www.w3.org/2000/svg">
<path d="M450.144 1.21649C517.788 -3.03613 596.252 19.0917 590.422 82.6527C585.072 146.158 495.494 251.678 465.221 322.752C435.015 394.406 464.181 432.195 453.374 444.017C442.633 456.42 391.854 442.276 364.77 460.672C337.205 479.124 332.856 530.172 297.98 603.539C263.104 676.905 197.222 772.646 133.514 789.965C69.3254 807.338 7.31166 746.29 0.640443 667.121C-6.03077 587.953 43.0542 490.029 72.6332 421.386C102.626 352.108 112.499 311.005 140.944 295.978C169.456 281.532 215.926 292.057 240.729 258.053C265.051 224.105 267.159 145.102 296.418 90.6023C326.157 36.0469 382.98 5.41388 450.144 1.21649Z" fill="#F79824"/>
</svg>
