<svg width="162" height="95" viewBox="0 0 162 95" fill="none" xmlns="http://www.w3.org/2000/svg">
<g id="Logo Portrait">
<g id="Icon">
<path id="Subtract" d="M96 0C104.284 0 111 6.71573 111 15V45C111 53.2843 104.284 60 96 60H66C57.7157 60 51 53.2843 51 45V15C51 6.71573 57.7157 0 66 0H96ZM76.2959 15C75.848 15 75.3683 15.1764 74.8564 15.5283L67.8477 20.6641C67.4958 20.92 67.2559 21.2401 67.1279 21.624C67 21.9759 66.9683 22.3437 67.0322 22.7275C67.1282 23.0795 67.3036 23.4005 67.5596 23.6885C67.8154 23.9763 68.1358 24.1676 68.5195 24.2637C68.9035 24.3597 69.1601 24.4884 69.2881 24.6484C69.4479 24.8084 69.5283 25.0483 69.5283 25.3682L69.5762 37.6562C69.5762 39.6081 70.1676 41.1764 71.3516 42.3604C72.5355 43.5443 74.0879 44.1357 76.0078 44.1357C76.8718 44.1357 77.6564 44.0723 78.3604 43.9443C79.0962 43.8163 79.7363 43.6241 80.2803 43.3682C80.8242 43.1122 81.2403 42.8239 81.5283 42.5039C81.8481 42.184 82.0077 41.8321 82.0078 41.4482C82.0078 40.8083 81.6401 40.3764 80.9043 40.1523C80.2003 39.9283 79.6079 39.5599 79.1279 39.0479C78.648 38.5359 78.4082 37.9117 78.4082 37.1758V25.3682C78.4082 24.6642 78.76 24.3116 79.4639 24.3115H80.0879C81.2718 24.3115 81.8641 23.6881 81.8643 22.4404C81.8643 21.2244 81.2719 20.6162 80.0879 20.6162H79.3682C78.6002 20.6162 78.2158 20.2319 78.2158 19.4639V17.2559C78.2158 16.5519 78.0236 16.008 77.6396 15.624C77.2877 15.2081 76.8398 15 76.2959 15ZM89.1494 34.8721C88.5414 34.8721 87.949 34.9999 87.373 35.2559C86.8292 35.4798 86.3495 35.8 85.9336 36.2158C85.5496 36.5998 85.2287 37.0644 84.9727 37.6084C84.7488 38.1522 84.6367 38.7441 84.6367 39.3838C84.6367 40.6318 85.0696 41.7036 85.9336 42.5996C86.8296 43.4636 87.9014 43.8965 89.1494 43.8965C89.7892 43.8964 90.3809 43.7676 90.9248 43.5117C91.4688 43.2877 91.9334 42.9836 92.3174 42.5996C92.7332 42.1837 93.0534 41.704 93.2773 41.1602C93.5333 40.5842 93.6611 39.9918 93.6611 39.3838C93.6611 38.1359 93.2133 37.0798 92.3174 36.2158C91.4534 35.3199 90.3973 34.8721 89.1494 34.8721Z" fill="#0077FF"/>
</g>
<g id="Typography">
<path id="Vector" d="M153.934 81.4309C155.058 81.4309 155.62 81.006 155.62 80.1563C155.62 79.8273 155.537 79.5121 155.373 79.2105C155.236 78.8816 155.044 78.5938 154.797 78.347C154.55 78.1003 154.263 77.9084 153.934 77.7714C153.632 77.6069 153.303 77.5247 152.947 77.5247C152.59 77.5247 152.248 77.6206 151.919 77.8125C151.59 77.977 151.302 78.1963 151.055 78.4704C150.809 78.7171 150.617 79.0049 150.48 79.3339C150.343 79.6628 150.274 79.9918 150.274 80.3207C150.274 80.7593 150.397 81.0609 150.644 81.2253C150.891 81.3624 151.247 81.4309 151.713 81.4309H153.934ZM150.11 85.9128C150.11 86.4337 150.233 86.9682 150.48 87.5164C150.726 88.0647 151.055 88.5581 151.467 88.9967C151.878 89.4353 152.357 89.7917 152.906 90.0658C153.481 90.3399 154.071 90.477 154.674 90.477C155.359 90.477 155.935 90.3947 156.401 90.2303C156.867 90.0658 157.278 89.8876 157.634 89.6957C157.991 89.5038 158.306 89.3257 158.58 89.1612C158.854 88.9967 159.142 88.9145 159.444 88.9145C159.69 88.9145 159.937 89.0104 160.184 89.2023C160.43 89.3942 160.554 89.7231 160.554 90.1891C160.554 90.6826 160.334 91.2171 159.896 91.7928C159.457 92.341 158.854 92.8618 158.087 93.3553C157.319 93.8213 156.414 94.205 155.373 94.5066C154.359 94.8355 153.248 95 152.042 95C150.535 95 149.137 94.7396 147.848 94.2187C146.56 93.6705 145.436 92.9167 144.476 91.9572C143.544 90.9978 142.804 89.8739 142.256 88.5855C141.735 87.2697 141.475 85.858 141.475 84.3503C141.475 82.8427 141.763 81.4446 142.338 80.1563C142.914 78.8679 143.695 77.7577 144.682 76.8257C145.696 75.8662 146.902 75.1261 148.3 74.6053C149.698 74.057 151.22 73.7829 152.865 73.7829C153.934 73.7829 154.975 74.0159 155.99 74.4819C157.031 74.9479 157.963 75.5647 158.786 76.3322C159.608 77.0998 160.266 77.977 160.759 78.9638C161.253 79.9507 161.499 80.9512 161.499 81.9655C161.499 83.8843 160.595 84.8438 158.786 84.8438H151.343C150.877 84.8438 150.548 84.926 150.356 85.0905C150.192 85.2549 150.11 85.5291 150.11 85.9128Z" fill="#0077FF"/>
<path id="Vector_2" d="M113.076 74.1118C113.295 74.0022 113.556 73.9474 113.857 73.9474C114.241 73.9474 114.57 74.057 114.844 74.2763C115.118 74.4956 115.255 74.7697 115.255 75.0987C115.255 75.5099 115.42 75.7155 115.749 75.7155C115.968 75.7155 116.215 75.6195 116.489 75.4276C116.79 75.2083 117.133 74.989 117.517 74.7697C117.928 74.523 118.408 74.3037 118.956 74.1118C119.532 73.8925 120.203 73.7829 120.971 73.7829C122.013 73.7829 122.917 73.9748 123.685 74.3586C124.452 74.7423 125.151 75.2495 125.782 75.8799C126.028 76.1266 126.303 76.1541 126.604 75.9622C126.878 75.7977 127.207 75.5921 127.591 75.3454C128.002 75.0987 128.441 74.8657 128.907 74.6464C129.373 74.3997 129.866 74.2078 130.387 74.0707C130.935 73.9063 131.497 73.824 132.073 73.824C133.005 73.824 133.855 73.9748 134.622 74.2763C135.39 74.5779 136.048 75.0027 136.596 75.551C137.144 76.0992 137.569 76.7571 137.871 77.5247C138.172 78.2648 138.323 79.0872 138.323 79.9918V89.2023C138.323 89.9973 138.419 90.5866 138.611 90.9704C138.803 91.3268 139.022 91.6009 139.269 91.7928C139.515 91.9846 139.735 92.1628 139.926 92.3273C140.118 92.4644 140.214 92.7385 140.214 93.1497C140.214 93.506 140.077 93.7939 139.803 94.0132C139.529 94.2325 139.173 94.3421 138.734 94.3421H130.675C130.236 94.3421 129.88 94.2325 129.606 94.0132C129.359 93.7939 129.236 93.4923 129.236 93.1086C129.236 92.6974 129.318 92.4232 129.482 92.2862C129.674 92.1217 129.88 91.9435 130.099 91.7516C130.318 91.5323 130.51 91.2445 130.675 90.8882C130.867 90.5044 130.963 89.9013 130.963 89.0789V81.472C130.963 80.6223 130.757 79.9918 130.346 79.5806C129.935 79.142 129.428 78.9227 128.824 78.9227C128.112 78.9227 127.563 79.1283 127.18 79.5395C126.796 79.9232 126.604 80.4852 126.604 81.2253V89.2023C126.604 89.9973 126.686 90.5866 126.851 90.9704C127.043 91.3268 127.248 91.6009 127.468 91.7928C127.714 91.9846 127.92 92.1628 128.084 92.3273C128.276 92.4644 128.372 92.7385 128.372 93.1497C128.372 93.506 128.235 93.7939 127.961 94.0132C127.687 94.2325 127.33 94.3421 126.892 94.3421H119.285C118.846 94.3421 118.504 94.2325 118.257 94.0132C118.01 93.7939 117.887 93.4923 117.887 93.1086C117.887 92.6974 117.969 92.4232 118.134 92.2862C118.326 92.1217 118.531 91.9435 118.75 91.7516C118.97 91.5323 119.162 91.2445 119.326 90.8882C119.518 90.5044 119.614 89.9013 119.614 89.0789V81.472C119.614 80.6223 119.408 79.9918 118.997 79.5806C118.586 79.142 118.079 78.9227 117.476 78.9227C116.763 78.9227 116.215 79.1283 115.831 79.5395C115.447 79.9232 115.255 80.4852 115.255 81.2253V89.2023C115.255 89.9973 115.338 90.5866 115.502 90.9704C115.694 91.3268 115.9 91.6009 116.119 91.7928C116.366 91.9846 116.571 92.1628 116.736 92.3273C116.928 92.4644 117.023 92.7385 117.023 93.1497C117.023 93.506 116.886 93.7939 116.612 94.0132C116.338 94.2325 115.996 94.3421 115.584 94.3421H107.731C107.292 94.3421 106.936 94.2325 106.662 94.0132C106.415 93.7939 106.292 93.4923 106.292 93.1086C106.292 92.6974 106.388 92.4232 106.579 92.2862C106.771 92.1217 106.977 91.9435 107.196 91.7516C107.443 91.5323 107.662 91.2445 107.854 90.8882C108.046 90.5044 108.142 89.9013 108.142 89.0789V81.801C108.142 81.006 108.046 80.4167 107.854 80.0329C107.662 79.6217 107.457 79.3065 107.237 79.0872C107.018 78.8405 106.812 78.6486 106.621 78.5115C106.429 78.347 106.333 78.114 106.333 77.8125C106.333 77.4013 106.511 77.0861 106.867 76.8668C107.224 76.6201 107.676 76.3871 108.224 76.1678L113.076 74.1118Z" fill="#0077FF"/>
<path id="Vector_3" d="M96.4405 90.8881C96.4405 90.3399 96.5364 89.8328 96.7283 89.3668C96.9476 88.9008 97.2217 88.5033 97.5507 88.1743C97.9071 87.818 98.3182 87.5438 98.7842 87.352C99.2777 87.1327 99.7848 87.023 100.306 87.023C101.375 87.023 102.279 87.4068 103.019 88.1743C103.787 88.9145 104.171 89.8191 104.171 90.8881C104.171 91.409 104.061 91.9161 103.842 92.4095C103.65 92.8755 103.376 93.2867 103.019 93.6431C102.69 93.972 102.293 94.2324 101.827 94.4243C101.361 94.6436 100.854 94.7533 100.306 94.7533C99.2365 94.7533 98.3182 94.3832 97.5507 93.6431C96.8106 92.8755 96.4405 91.9572 96.4405 90.8881Z" fill="#0077FF"/>
<path id="Vector_4" d="M85.7044 75.3454C85.7044 75.6469 85.7593 75.8662 85.8689 76.0033C86.006 76.1403 86.1293 76.2089 86.239 76.2089C86.376 76.2089 86.5405 76.0992 86.7324 75.8799C86.9243 75.6606 87.171 75.4276 87.4725 75.1809C87.8015 74.9068 88.1853 74.6601 88.6239 74.4408C89.0624 74.2215 89.6107 74.1118 90.2686 74.1118C91.4199 74.1118 92.3519 74.5093 93.0646 75.3043C93.8048 76.0718 94.1748 77.1546 94.1748 78.5526C94.1748 79.8136 93.887 80.869 93.3114 81.7187C92.7357 82.5685 92.0093 82.9934 91.1321 82.9934C90.6112 82.9934 90.2138 82.8426 89.9396 82.5411C89.6929 82.2396 89.4736 81.9243 89.2817 81.5954C89.0899 81.239 88.8843 80.9101 88.665 80.6085C88.4457 80.307 88.1167 80.1562 87.6781 80.1562C87.2121 80.1562 86.8009 80.3618 86.4446 80.773C86.1156 81.1568 85.9512 81.6776 85.9512 82.3355V89.2023C85.9512 89.9972 86.0334 90.5866 86.1979 90.9704C86.3898 91.3267 86.5953 91.6009 86.8146 91.7927C87.0614 91.9846 87.2669 92.1628 87.4314 92.3273C87.6233 92.4643 87.7192 92.7385 87.7192 93.1497C87.7192 93.506 87.5822 93.7938 87.3081 94.0131C87.0339 94.2324 86.6776 94.3421 86.239 94.3421H78.1798C77.7412 94.3421 77.3848 94.2324 77.1107 94.0131C76.864 93.7938 76.7406 93.4923 76.7406 93.1085C76.7406 92.6974 76.8366 92.4232 77.0285 92.2862C77.2203 92.1217 77.4259 91.9435 77.6452 91.7516C77.8919 91.5323 78.1112 91.2445 78.3031 90.8881C78.495 90.5044 78.591 89.9013 78.591 89.0789V81.801C78.591 81.006 78.495 80.4167 78.3031 80.0329C78.1112 79.6217 77.9056 79.3065 77.6864 79.0872C77.4671 78.8404 77.2615 78.6486 77.0696 78.5115C76.8777 78.347 76.7817 78.114 76.7817 77.8125C76.7817 77.4013 76.9599 77.0861 77.3163 76.8668C77.6726 76.6201 78.1249 76.387 78.6732 76.1678L83.7719 74.1118C83.9912 74.0022 84.2379 73.9474 84.512 73.9474C84.8684 73.9474 85.1562 74.057 85.3755 74.2763C85.5948 74.4956 85.7044 74.7697 85.7044 75.0987V75.3454Z" fill="#0077FF"/>
<path id="Vector_5" d="M52.7692 84.5148C52.7692 83.0071 53.0571 81.6091 53.6327 80.3207C54.2084 79.0323 55.0033 77.9221 56.0176 76.9901C57.0318 76.0581 58.2243 75.3317 59.5949 74.8109C60.9929 74.29 62.5006 74.0296 64.1179 74.0296C65.7352 74.0296 67.2292 74.29 68.5998 74.8109C69.9978 75.3317 71.204 76.0581 72.2182 76.9901C73.2325 77.9221 74.0274 79.0323 74.6031 80.3207C75.1788 81.6091 75.4666 83.0071 75.4666 84.5148C75.4666 86.0225 75.1788 87.4205 74.6031 88.7089C74.0274 89.9973 73.2325 91.1075 72.2182 92.0395C71.204 92.9715 69.9978 93.6979 68.5998 94.2187C67.2292 94.7396 65.7352 95 64.1179 95C62.5006 95 60.9929 94.7396 59.5949 94.2187C58.2243 93.6979 57.0318 92.9715 56.0176 92.0395C55.0033 91.1075 54.2084 89.9973 53.6327 88.7089C53.0571 87.4205 52.7692 86.0225 52.7692 84.5148ZM61.1985 84.5148C61.1985 89.1475 62.1716 91.4638 64.1179 91.4638C66.0642 91.4638 67.0373 89.1475 67.0373 84.5148C67.0373 79.8821 66.0642 77.5658 64.1179 77.5658C62.1716 77.5658 61.1985 79.8821 61.1985 84.5148Z" fill="#0077FF"/>
<path id="Vector_6" d="M50.5582 91.546C51.1886 91.7379 51.5039 92.108 51.5039 92.6562C51.5039 92.9852 51.3668 93.2867 51.0927 93.5609C50.846 93.835 50.4896 94.0817 50.0236 94.301C49.5576 94.5203 49.0094 94.6848 48.3789 94.7944C47.7758 94.9041 47.1042 94.9589 46.3641 94.9589C44.7193 94.9589 43.3898 94.4517 42.3756 93.4375C41.3613 92.4232 40.8542 91.08 40.8542 89.4079L40.8131 78.8816C40.8131 78.6075 40.7446 78.4019 40.6075 78.2648C40.4978 78.1277 40.2786 78.0181 39.9496 77.9359C39.6207 77.8536 39.3465 77.6891 39.1272 77.4424C38.9079 77.1957 38.7572 76.9216 38.6749 76.6201C38.6201 76.2911 38.6475 75.9759 38.7572 75.6743C38.8668 75.3454 39.0724 75.0713 39.3739 74.852L45.3772 70.4523C45.8158 70.1508 46.227 70 46.6108 70C47.0768 70 47.4606 70.1782 47.7621 70.5345C48.091 70.8635 48.2555 71.3295 48.2555 71.9326V73.824C48.2555 74.4819 48.5845 74.8109 49.2424 74.8109H49.8591C50.8734 74.8109 51.3805 75.3317 51.3805 76.3734C51.3805 77.4424 50.8734 77.977 49.8591 77.977H49.3246C48.7215 77.977 48.42 78.2785 48.42 78.8816V88.9967C48.42 89.6272 48.6256 90.1617 49.0368 90.6003C49.448 91.0389 49.9551 91.3542 50.5582 91.546Z" fill="#0077FF"/>
<path id="Vector_7" d="M33.4545 74.1118C33.6738 74.0022 33.9342 73.9474 34.2358 73.9474C34.6195 73.9474 34.9485 74.057 35.2226 74.2763C35.4967 74.4956 35.6338 74.7697 35.6338 75.0987V89.2023C35.6338 89.9972 35.716 90.5866 35.8805 90.9704C36.0724 91.3267 36.278 91.6009 36.4973 91.7927C36.744 91.9846 36.9496 92.1628 37.114 92.3273C37.3059 92.4643 37.4019 92.7385 37.4019 93.1497C37.4019 93.506 37.2648 93.7938 36.9907 94.0131C36.7166 94.2324 36.3602 94.3421 35.9216 94.3421H30.5762C29.4249 94.3421 28.8492 93.9446 28.8492 93.1497V93.1085C28.8492 92.7248 28.6711 92.5329 28.3147 92.5329C28.068 92.5329 27.7939 92.6562 27.4923 92.9029C27.1908 93.1497 26.8207 93.4238 26.3821 93.7253C25.9435 94.0268 25.409 94.301 24.7785 94.5477C24.1754 94.7944 23.449 94.9177 22.5992 94.9177C20.653 94.9177 19.159 94.3695 18.1173 93.273C17.0757 92.1765 16.5548 90.4633 16.5548 88.1332V81.2253C16.5548 80.5674 16.4452 80.0877 16.2259 79.7862C16.034 79.4846 15.8147 79.2516 15.568 79.0872C15.3213 78.8953 15.0883 78.7171 14.869 78.5526C14.6771 78.3881 14.5811 78.1003 14.5811 77.6891C14.5811 77.3328 14.6908 77.0861 14.9101 76.949C15.1568 76.7845 15.4309 76.6475 15.7325 76.5378L22.0236 74.4408C22.2703 74.3585 22.517 74.3174 22.7637 74.3174C23.1475 74.3174 23.4627 74.4271 23.7094 74.6464C23.9561 74.8383 24.0795 75.1261 24.0795 75.5099V87.1464C24.0795 87.9413 24.2714 88.5444 24.6552 88.9556C25.0663 89.3393 25.5598 89.5312 26.1354 89.5312C26.8207 89.5312 27.3416 89.2434 27.6979 88.6677C28.0817 88.0921 28.2736 87.3657 28.2736 86.4885V81.801C28.2736 81.006 28.1776 80.4167 27.9857 80.0329C27.7939 79.6217 27.5883 79.3065 27.369 79.0872C27.1497 78.8404 26.9441 78.6486 26.7522 78.5115C26.5603 78.347 26.4644 78.114 26.4644 77.8125C26.4644 77.4013 26.6425 77.0861 26.9989 76.8668C27.3553 76.6201 27.8076 76.387 28.3558 76.1678L33.4545 74.1118Z" fill="#0077FF"/>
<path id="Vector_8" d="M12.4112 91.546C13.0417 91.7379 13.3569 92.108 13.3569 92.6562C13.3569 92.9852 13.2198 93.2867 12.9457 93.5609C12.699 93.835 12.3427 94.0817 11.8766 94.301C11.4106 94.5203 10.8624 94.6848 10.2319 94.7944C9.62884 94.9041 8.95724 94.9589 8.2171 94.9589C6.57237 94.9589 5.24287 94.4517 4.22862 93.4375C3.21436 92.4232 2.70724 91.08 2.70724 89.4079L2.66612 78.8816C2.66612 78.6075 2.59759 78.4019 2.46053 78.2648C2.35088 78.1277 2.13158 78.0181 1.80263 77.9359C1.47369 77.8536 1.19956 77.6891 0.980264 77.4424C0.760966 77.1957 0.610198 76.9216 0.527962 76.6201C0.473137 76.2911 0.500549 75.9759 0.610198 75.6743C0.719848 75.3454 0.92544 75.0713 1.22697 74.852L7.23026 70.4523C7.66886 70.1508 8.08004 70 8.46382 70C8.92982 70 9.3136 70.1782 9.61513 70.5345C9.94408 70.8635 10.1086 71.3295 10.1086 71.9326V73.824C10.1086 74.4819 10.4375 74.8109 11.0954 74.8109H11.7122C12.7264 74.8109 13.2336 75.3317 13.2336 76.3734C13.2336 77.4424 12.7264 77.977 11.7122 77.977H11.1776C10.5746 77.977 10.273 78.2785 10.273 78.8816V88.9967C10.273 89.6272 10.4786 90.1617 10.8898 90.6003C11.301 91.0389 11.8081 91.3542 12.4112 91.546Z" fill="#0077FF"/>
</g>
</g>
</svg>
