<svg width="100" height="100" viewBox="0 0 100 100" fill="none" xmlns="http://www.w3.org/2000/svg">
<path d="M85 0C93.2843 0 100 6.71573 100 15V85C100 93.2843 93.2843 100 85 100H15C6.71573 100 3.2215e-07 93.2843 0 85V15C0 6.71573 6.71573 3.22129e-07 15 0H85ZM42.1602 25C41.4135 25 40.6131 25.2932 39.7598 25.8799L28.0801 34.4404C27.4935 34.8671 27.0932 35.4001 26.8799 36.04C26.6666 36.6266 26.6131 37.24 26.7197 37.8799C26.8797 38.4665 27.1729 39.0005 27.5996 39.4805C28.0263 39.9604 28.5602 40.2804 29.2002 40.4404C29.84 40.6004 30.2672 40.8135 30.4805 41.0801C30.7469 41.3467 30.8799 41.7471 30.8799 42.2803L30.96 62.7598C30.96 66.013 31.9467 68.6263 33.9199 70.5996C35.8932 72.5729 38.4798 73.5595 41.6797 73.5596C43.1195 73.5596 44.4264 73.4535 45.5996 73.2402C46.8262 73.0269 47.8932 72.7069 48.7998 72.2803C49.7065 71.8536 50.3999 71.3732 50.8799 70.8398C51.4132 70.3065 51.6797 69.72 51.6797 69.0801C51.6797 68.0134 51.0665 67.2933 49.8398 66.9199C48.6666 66.5466 47.6798 65.9334 46.8799 65.0801C46.0799 64.2267 45.6797 63.1866 45.6797 61.96V42.2803C45.6797 41.1069 46.2671 40.5195 47.4404 40.5195H48.4805C50.4534 40.5194 51.4403 39.48 51.4404 37.4004C51.4404 35.3739 50.4535 34.3605 48.4805 34.3604H47.2803C46.0004 34.3604 45.3605 33.7201 45.3604 32.4404V28.7598C45.3603 27.5867 45.0402 26.68 44.4004 26.04C43.8138 25.3468 43.0667 25 42.1602 25ZM63.582 58.1201C62.5688 58.1201 61.582 58.3332 60.6221 58.7598C59.7154 59.1331 58.915 59.667 58.2217 60.3604C57.5819 61.0002 57.0486 61.7733 56.6221 62.6797C56.2488 63.5863 56.0616 64.5731 56.0615 65.6396C56.0615 67.7196 56.7817 69.5067 58.2217 71C59.715 72.44 61.502 73.1602 63.582 73.1602C64.6486 73.1601 65.6354 72.9462 66.542 72.5195C67.4485 72.1462 68.2224 71.6399 68.8623 71C69.5555 70.3067 70.0886 69.5062 70.4619 68.5996C70.8885 67.6397 71.1016 66.6529 71.1016 65.6396C71.1015 63.56 70.3553 61.8002 68.8623 60.3604C67.4223 58.8671 65.662 58.1202 63.582 58.1201Z" fill="#0077FF"/>
</svg>
