<svg width="236" height="60" viewBox="0 0 236 60" fill="none" xmlns="http://www.w3.org/2000/svg">
<path d="M45.0005 0C53.2848 0 60.0005 6.71573 60.0005 15V45C60.0005 53.2843 53.2848 60 45.0005 60H15.0005C6.71628 60 0.000549316 53.2843 0.000549316 45V15C0.000549316 6.71573 6.71628 0 15.0005 0H45.0005ZM25.2964 15C24.8485 15 24.3689 15.1764 23.857 15.5283L16.8482 20.6641C16.4963 20.92 16.2564 21.2401 16.1285 21.624C16.0005 21.9759 15.9689 22.3437 16.0328 22.7275C16.1288 23.0795 16.3041 23.4005 16.5601 23.6885C16.816 23.9763 17.1363 24.1676 17.5201 24.2637C17.9041 24.3597 18.1606 24.4884 18.2886 24.6484C18.4485 24.8084 18.5289 25.0483 18.5289 25.3682L18.5767 37.6562C18.5768 39.6081 19.1682 41.1764 20.3521 42.3604C21.5361 43.5443 23.0884 44.1357 25.0084 44.1357C25.8724 44.1357 26.6569 44.0723 27.3609 43.9443C28.0968 43.8163 28.7369 43.6241 29.2808 43.3682C29.8247 43.1122 30.2409 42.8239 30.5289 42.5039C30.8487 42.184 31.0083 41.8321 31.0084 41.4482C31.0084 40.8083 30.6406 40.3764 29.9048 40.1523C29.2008 39.9283 28.6085 39.5599 28.1285 39.0479C27.6486 38.5359 27.4088 37.9117 27.4088 37.1758V25.3682C27.4088 24.6642 27.7605 24.3116 28.4644 24.3115H29.0884C30.2723 24.3115 30.8647 23.6881 30.8648 22.4404C30.8648 21.2244 30.2724 20.6162 29.0884 20.6162H28.3687C27.6007 20.6162 27.2164 20.2319 27.2164 19.4639V17.2559C27.2163 16.5519 27.0242 16.008 26.6402 15.624C26.2882 15.2081 25.8404 15 25.2964 15ZM38.15 34.8721C37.542 34.8721 36.9496 34.9999 36.3736 35.2559C35.8297 35.4798 35.3501 35.8 34.9341 36.2158C34.5501 36.5998 34.2292 37.0644 33.9732 37.6084C33.7494 38.1522 33.6373 38.7441 33.6373 39.3838C33.6373 40.6318 34.0701 41.7036 34.9341 42.5996C35.8301 43.4636 36.902 43.8965 38.15 43.8965C38.7898 43.8964 39.3815 43.7676 39.9254 43.5117C40.4694 43.2877 40.9339 42.9836 41.3179 42.5996C41.7338 42.1837 42.054 41.704 42.2779 41.1602C42.5339 40.5842 42.6617 39.9918 42.6617 39.3838C42.6616 38.1359 42.2139 37.0798 41.3179 36.2158C40.454 35.3199 39.3978 34.8721 38.15 34.8721Z" fill="#0077FF"/>
<path d="M228.434 28.9309C229.558 28.9309 230.12 28.506 230.12 27.6563C230.12 27.3273 230.037 27.0121 229.873 26.7105C229.736 26.3816 229.544 26.0938 229.297 25.847C229.05 25.6003 228.763 25.4084 228.434 25.2714C228.132 25.1069 227.803 25.0247 227.447 25.0247C227.09 25.0247 226.748 25.1206 226.419 25.3125C226.09 25.477 225.802 25.6963 225.555 25.9704C225.309 26.2171 225.117 26.5049 224.98 26.8339C224.843 27.1628 224.774 27.4918 224.774 27.8207C224.774 28.2593 224.897 28.5609 225.144 28.7253C225.391 28.8624 225.747 28.9309 226.213 28.9309H228.434ZM224.61 33.4128C224.61 33.9337 224.733 34.4682 224.98 35.0164C225.226 35.5647 225.555 36.0581 225.967 36.4967C226.378 36.9353 226.857 37.2917 227.406 37.5658C227.981 37.8399 228.571 37.977 229.174 37.977C229.859 37.977 230.435 37.8947 230.901 37.7303C231.367 37.5658 231.778 37.3876 232.134 37.1957C232.491 37.0038 232.806 36.8257 233.08 36.6612C233.354 36.4967 233.642 36.4145 233.944 36.4145C234.19 36.4145 234.437 36.5104 234.684 36.7023C234.93 36.8942 235.054 37.2231 235.054 37.6891C235.054 38.1826 234.834 38.7171 234.396 39.2928C233.957 39.841 233.354 40.3618 232.587 40.8553C231.819 41.3213 230.914 41.705 229.873 42.0066C228.859 42.3355 227.748 42.5 226.542 42.5C225.035 42.5 223.637 42.2396 222.348 41.7187C221.06 41.1705 219.936 40.4167 218.976 39.4572C218.044 38.4978 217.304 37.3739 216.756 36.0855C216.235 34.7697 215.975 33.358 215.975 31.8503C215.975 30.3427 216.263 28.9446 216.838 27.6563C217.414 26.3679 218.195 25.2577 219.182 24.3257C220.196 23.3662 221.402 22.6261 222.8 22.1053C224.198 21.557 225.72 21.2829 227.365 21.2829C228.434 21.2829 229.475 21.5159 230.49 21.9819C231.531 22.4479 232.463 23.0647 233.286 23.8322C234.108 24.5998 234.766 25.477 235.259 26.4638C235.753 27.4507 235.999 28.4512 235.999 29.4655C235.999 31.3843 235.095 32.3437 233.286 32.3437H225.843C225.377 32.3437 225.048 32.426 224.856 32.5905C224.692 32.7549 224.61 33.0291 224.61 33.4128Z" fill="#0077FF"/>
<path d="M187.576 21.6118C187.795 21.5022 188.056 21.4474 188.357 21.4474C188.741 21.4474 189.07 21.557 189.344 21.7763C189.618 21.9956 189.755 22.2697 189.755 22.5987C189.755 23.0099 189.92 23.2155 190.249 23.2155C190.468 23.2155 190.715 23.1195 190.989 22.9276C191.29 22.7083 191.633 22.489 192.017 22.2697C192.428 22.023 192.908 21.8037 193.456 21.6118C194.032 21.3925 194.703 21.2829 195.471 21.2829C196.513 21.2829 197.417 21.4748 198.185 21.8586C198.952 22.2423 199.651 22.7495 200.282 23.3799C200.528 23.6266 200.803 23.6541 201.104 23.4622C201.378 23.2977 201.707 23.0921 202.091 22.8454C202.502 22.5987 202.941 22.3657 203.407 22.1464C203.873 21.8997 204.366 21.7078 204.887 21.5707C205.435 21.4063 205.997 21.324 206.573 21.324C207.505 21.324 208.355 21.4748 209.122 21.7763C209.89 22.0779 210.548 22.5027 211.096 23.051C211.644 23.5992 212.069 24.2571 212.371 25.0247C212.672 25.7648 212.823 26.5872 212.823 27.4918V36.7023C212.823 37.4973 212.919 38.0866 213.111 38.4704C213.303 38.8268 213.522 39.1009 213.769 39.2928C214.015 39.4846 214.235 39.6628 214.426 39.8273C214.618 39.9644 214.714 40.2385 214.714 40.6497C214.714 41.006 214.577 41.2939 214.303 41.5132C214.029 41.7325 213.673 41.8421 213.234 41.8421H205.175C204.736 41.8421 204.38 41.7325 204.106 41.5132C203.859 41.2939 203.736 40.9923 203.736 40.6086C203.736 40.1974 203.818 39.9232 203.982 39.7862C204.174 39.6217 204.38 39.4435 204.599 39.2516C204.818 39.0323 205.01 38.7445 205.175 38.3882C205.367 38.0044 205.463 37.4013 205.463 36.5789V28.972C205.463 28.1223 205.257 27.4918 204.846 27.0806C204.435 26.642 203.928 26.4227 203.324 26.4227C202.612 26.4227 202.064 26.6283 201.68 27.0395C201.296 27.4232 201.104 27.9852 201.104 28.7253V36.7023C201.104 37.4973 201.186 38.0866 201.351 38.4704C201.543 38.8268 201.748 39.1009 201.968 39.2928C202.214 39.4846 202.42 39.6628 202.584 39.8273C202.776 39.9644 202.872 40.2385 202.872 40.6497C202.872 41.006 202.735 41.2939 202.461 41.5132C202.187 41.7325 201.83 41.8421 201.392 41.8421H193.785C193.346 41.8421 193.004 41.7325 192.757 41.5132C192.51 41.2939 192.387 40.9923 192.387 40.6086C192.387 40.1974 192.469 39.9232 192.634 39.7862C192.826 39.6217 193.031 39.4435 193.25 39.2516C193.47 39.0323 193.662 38.7445 193.826 38.3882C194.018 38.0044 194.114 37.4013 194.114 36.5789V28.972C194.114 28.1223 193.908 27.4918 193.497 27.0806C193.086 26.642 192.579 26.4227 191.976 26.4227C191.263 26.4227 190.715 26.6283 190.331 27.0395C189.947 27.4232 189.755 27.9852 189.755 28.7253V36.7023C189.755 37.4973 189.838 38.0866 190.002 38.4704C190.194 38.8268 190.4 39.1009 190.619 39.2928C190.866 39.4846 191.071 39.6628 191.236 39.8273C191.428 39.9644 191.523 40.2385 191.523 40.6497C191.523 41.006 191.386 41.2939 191.112 41.5132C190.838 41.7325 190.496 41.8421 190.084 41.8421H182.231C181.792 41.8421 181.436 41.7325 181.162 41.5132C180.915 41.2939 180.792 40.9923 180.792 40.6086C180.792 40.1974 180.888 39.9232 181.079 39.7862C181.271 39.6217 181.477 39.4435 181.696 39.2516C181.943 39.0323 182.162 38.7445 182.354 38.3882C182.546 38.0044 182.642 37.4013 182.642 36.5789V29.301C182.642 28.506 182.546 27.9167 182.354 27.5329C182.162 27.1217 181.957 26.8065 181.737 26.5872C181.518 26.3405 181.312 26.1486 181.121 26.0115C180.929 25.847 180.833 25.614 180.833 25.3125C180.833 24.9013 181.011 24.5861 181.367 24.3668C181.724 24.1201 182.176 23.8871 182.724 23.6678L187.576 21.6118Z" fill="#0077FF"/>
<path d="M170.941 38.3882C170.941 37.8399 171.036 37.3328 171.228 36.8668C171.448 36.4008 171.722 36.0033 172.051 35.6743C172.407 35.318 172.818 35.0439 173.284 34.852C173.778 34.6327 174.285 34.523 174.806 34.523C175.875 34.523 176.779 34.9068 177.519 35.6743C178.287 36.4145 178.671 37.3191 178.671 38.3882C178.671 38.909 178.561 39.4161 178.342 39.9095C178.15 40.3755 177.876 40.7867 177.519 41.1431C177.191 41.472 176.793 41.7325 176.327 41.9243C175.861 42.1436 175.354 42.2533 174.806 42.2533C173.737 42.2533 172.818 41.8832 172.051 41.1431C171.311 40.3755 170.941 39.4572 170.941 38.3882Z" fill="#0077FF"/>
<path d="M160.204 22.8454C160.204 23.1469 160.259 23.3662 160.369 23.5033C160.506 23.6404 160.629 23.7089 160.739 23.7089C160.876 23.7089 161.041 23.5992 161.232 23.3799C161.424 23.1606 161.671 22.9276 161.973 22.6809C162.301 22.4068 162.685 22.1601 163.124 21.9408C163.562 21.7215 164.111 21.6118 164.769 21.6118C165.92 21.6118 166.852 22.0093 167.565 22.8043C168.305 23.5718 168.675 24.6546 168.675 26.0526C168.675 27.3136 168.387 28.369 167.811 29.2188C167.236 30.0685 166.509 30.4934 165.632 30.4934C165.111 30.4934 164.714 30.3427 164.44 30.0411C164.193 29.7396 163.974 29.4243 163.782 29.0954C163.59 28.739 163.384 28.4101 163.165 28.1086C162.946 27.807 162.617 27.6563 162.178 27.6563C161.712 27.6563 161.301 27.8618 160.945 28.273C160.616 28.6568 160.451 29.1776 160.451 29.8355V36.7023C160.451 37.4973 160.533 38.0866 160.698 38.4704C160.89 38.8268 161.095 39.1009 161.315 39.2928C161.561 39.4846 161.767 39.6628 161.931 39.8273C162.123 39.9644 162.219 40.2385 162.219 40.6497C162.219 41.006 162.082 41.2939 161.808 41.5132C161.534 41.7325 161.178 41.8421 160.739 41.8421H152.68C152.241 41.8421 151.885 41.7325 151.611 41.5132C151.364 41.2939 151.241 40.9923 151.241 40.6086C151.241 40.1974 151.337 39.9232 151.528 39.7862C151.72 39.6217 151.926 39.4435 152.145 39.2516C152.392 39.0323 152.611 38.7445 152.803 38.3882C152.995 38.0044 153.091 37.4013 153.091 36.5789V29.301C153.091 28.506 152.995 27.9167 152.803 27.5329C152.611 27.1217 152.406 26.8065 152.186 26.5872C151.967 26.3405 151.761 26.1486 151.57 26.0115C151.378 25.847 151.282 25.614 151.282 25.3125C151.282 24.9013 151.46 24.5861 151.816 24.3668C152.173 24.1201 152.625 23.8871 153.173 23.6678L158.272 21.6118C158.491 21.5022 158.738 21.4474 159.012 21.4474C159.368 21.4474 159.656 21.557 159.875 21.7763C160.095 21.9956 160.204 22.2697 160.204 22.5987V22.8454Z" fill="#0077FF"/>
<path d="M127.269 32.0148C127.269 30.5071 127.557 29.1091 128.133 27.8207C128.708 26.5323 129.503 25.4221 130.518 24.4901C131.532 23.5581 132.724 22.8317 134.095 22.3109C135.493 21.79 137.001 21.5296 138.618 21.5296C140.235 21.5296 141.729 21.79 143.1 22.3109C144.498 22.8317 145.704 23.5581 146.718 24.4901C147.732 25.4221 148.527 26.5323 149.103 27.8207C149.679 29.1091 149.967 30.5071 149.967 32.0148C149.967 33.5225 149.679 34.9205 149.103 36.2089C148.527 37.4973 147.732 38.6075 146.718 39.5395C145.704 40.4715 144.498 41.1979 143.1 41.7187C141.729 42.2396 140.235 42.5 138.618 42.5C137.001 42.5 135.493 42.2396 134.095 41.7187C132.724 41.1979 131.532 40.4715 130.518 39.5395C129.503 38.6075 128.708 37.4973 128.133 36.2089C127.557 34.9205 127.269 33.5225 127.269 32.0148ZM135.699 32.0148C135.699 36.6475 136.672 38.9638 138.618 38.9638C140.564 38.9638 141.537 36.6475 141.537 32.0148C141.537 27.3821 140.564 25.0658 138.618 25.0658C136.672 25.0658 135.699 27.3821 135.699 32.0148Z" fill="#0077FF"/>
<path d="M125.058 39.046C125.689 39.2379 126.004 39.608 126.004 40.1562C126.004 40.4852 125.867 40.7867 125.593 41.0609C125.346 41.335 124.99 41.5817 124.524 41.801C124.058 42.0203 123.509 42.1848 122.879 42.2944C122.276 42.4041 121.604 42.4589 120.864 42.4589C119.219 42.4589 117.89 41.9518 116.876 40.9375C115.861 39.9232 115.354 38.58 115.354 36.9079L115.313 26.3816C115.313 26.1075 115.245 25.9019 115.107 25.7648C114.998 25.6277 114.779 25.5181 114.45 25.4359C114.121 25.3536 113.847 25.1891 113.627 24.9424C113.408 24.6957 113.257 24.4216 113.175 24.1201C113.12 23.7911 113.148 23.4759 113.257 23.1743C113.367 22.8454 113.572 22.5713 113.874 22.352L119.877 17.9523C120.316 17.6508 120.727 17.5 121.111 17.5C121.577 17.5 121.961 17.6782 122.262 18.0345C122.591 18.3635 122.756 18.8295 122.756 19.4326V21.324C122.756 21.9819 123.084 22.3109 123.742 22.3109H124.359C125.373 22.3109 125.881 22.8317 125.881 23.8734C125.881 24.9424 125.373 25.477 124.359 25.477H123.825C123.222 25.477 122.92 25.7785 122.92 26.3816V36.4967C122.92 37.1272 123.126 37.6617 123.537 38.1003C123.948 38.5389 124.455 38.8542 125.058 39.046Z" fill="#0077FF"/>
<path d="M107.955 21.6118C108.174 21.5022 108.434 21.4474 108.736 21.4474C109.12 21.4474 109.448 21.557 109.723 21.7763C109.997 21.9956 110.134 22.2697 110.134 22.5987V36.7023C110.134 37.4973 110.216 38.0866 110.38 38.4704C110.572 38.8268 110.778 39.1009 110.997 39.2928C111.244 39.4846 111.45 39.6628 111.614 39.8273C111.806 39.9644 111.902 40.2385 111.902 40.6497C111.902 41.006 111.765 41.2939 111.491 41.5132C111.217 41.7325 110.86 41.8421 110.422 41.8421H105.076C103.925 41.8421 103.349 41.4446 103.349 40.6497V40.6086C103.349 40.2248 103.171 40.0329 102.815 40.0329C102.568 40.0329 102.294 40.1563 101.992 40.403C101.691 40.6497 101.321 40.9238 100.882 41.2253C100.444 41.5269 99.909 41.801 99.2785 42.0477C98.6754 42.2944 97.949 42.4178 97.0992 42.4178C95.153 42.4178 93.659 41.8695 92.6173 40.773C91.5757 39.6765 91.0548 37.9633 91.0548 35.6332V28.7253C91.0548 28.0674 90.9452 27.5877 90.7259 27.2862C90.534 26.9847 90.3147 26.7516 90.068 26.5872C89.8213 26.3953 89.5883 26.2171 89.369 26.0526C89.1771 25.8882 89.0811 25.6003 89.0811 25.1891C89.0811 24.8328 89.1908 24.5861 89.4101 24.449C89.6568 24.2845 89.9309 24.1475 90.2325 24.0378L96.5236 21.9408C96.7703 21.8586 97.017 21.8174 97.2637 21.8174C97.6475 21.8174 97.9627 21.9271 98.2094 22.1464C98.4561 22.3383 98.5795 22.6261 98.5795 23.0099V34.6464C98.5795 35.4413 98.7714 36.0444 99.1552 36.4556C99.5663 36.8394 100.06 37.0313 100.635 37.0313C101.321 37.0313 101.842 36.7434 102.198 36.1678C102.582 35.5921 102.774 34.8657 102.774 33.9885V29.301C102.774 28.506 102.678 27.9167 102.486 27.5329C102.294 27.1217 102.088 26.8065 101.869 26.5872C101.65 26.3405 101.444 26.1486 101.252 26.0115C101.06 25.847 100.964 25.614 100.964 25.3125C100.964 24.9013 101.143 24.5861 101.499 24.3668C101.855 24.1201 102.308 23.8871 102.856 23.6678L107.955 21.6118Z" fill="#0077FF"/>
<path d="M86.9112 39.046C87.5417 39.2379 87.8569 39.608 87.8569 40.1562C87.8569 40.4852 87.7198 40.7867 87.4457 41.0609C87.199 41.335 86.8427 41.5817 86.3766 41.801C85.9106 42.0203 85.3624 42.1848 84.7319 42.2944C84.1288 42.4041 83.4572 42.4589 82.7171 42.4589C81.0724 42.4589 79.7429 41.9518 78.7286 40.9375C77.7144 39.9232 77.2072 38.58 77.2072 36.9079L77.1661 26.3816C77.1661 26.1075 77.0976 25.9019 76.9605 25.7648C76.8509 25.6277 76.6316 25.5181 76.3026 25.4359C75.9737 25.3536 75.6996 25.1891 75.4803 24.9424C75.261 24.6957 75.1102 24.4216 75.028 24.1201C74.9731 23.7911 75.0005 23.4759 75.1102 23.1743C75.2198 22.8454 75.4254 22.5713 75.727 22.352L81.7303 17.9523C82.1689 17.6508 82.58 17.5 82.9638 17.5C83.4298 17.5 83.8136 17.6782 84.1151 18.0345C84.4441 18.3635 84.6086 18.8295 84.6086 19.4326V21.324C84.6086 21.9819 84.9375 22.3109 85.5954 22.3109H86.2122C87.2264 22.3109 87.7336 22.8317 87.7336 23.8734C87.7336 24.9424 87.2264 25.477 86.2122 25.477H85.6776C85.0746 25.477 84.773 25.7785 84.773 26.3816V36.4967C84.773 37.1272 84.9786 37.6617 85.3898 38.1003C85.801 38.5389 86.3081 38.8542 86.9112 39.046Z" fill="#0077FF"/>
</svg>
